<?xml version="1.0" encoding="utf-8" standalone="no"?>
<!DOCTYPE svg PUBLIC "-//W3C//DTD SVG 1.1//EN"
  "http://www.w3.org/Graphics/SVG/1.1/DTD/svg11.dtd">
<!-- Created with matplotlib (http://matplotlib.org/) -->
<svg height="576pt" version="1.1" viewBox="0 0 720 576" width="720pt" xmlns="http://www.w3.org/2000/svg" xmlns:xlink="http://www.w3.org/1999/xlink">
 <defs>
  <style type="text/css">
*{stroke-linecap:butt;stroke-linejoin:round;}
  </style>
 </defs>
 <g id="figure_1">
  <g id="patch_1">
   <path d="M 0 576 
L 720 576 
L 720 0 
L 0 0 
z
" style="fill:#ffffff;"/>
  </g>
  <g id="axes_1">
   <g id="patch_2">
    <path d="M 90 504 
L 648 504 
L 648 69.12 
L 90 69.12 
z
" style="fill:#ffffff;"/>
   </g>
   <g id="matplotlib.axis_1">
    <g id="xtick_1">
     <g id="line2d_1">
      <defs>
       <path d="M 0 0 
L 0 3.5 
" id="me34eb4922b" style="stroke:#000000;stroke-width:0.8;"/>
      </defs>
      <g>
       <use style="stroke:#000000;stroke-width:0.8;" x="97.784045" xlink:href="#me34eb4922b" y="504"/>
      </g>
     </g>
     <g id="text_1">
      <!-- 0.0 -->
      <defs>
       <path d="M 31.78125 66.40625 
Q 24.171875 66.40625 20.328125 58.90625 
Q 16.5 51.421875 16.5 36.375 
Q 16.5 21.390625 20.328125 13.890625 
Q 24.171875 6.390625 31.78125 6.390625 
Q 39.453125 6.390625 43.28125 13.890625 
Q 47.125 21.390625 47.125 36.375 
Q 47.125 51.421875 43.28125 58.90625 
Q 39.453125 66.40625 31.78125 66.40625 
z
M 31.78125 74.21875 
Q 44.046875 74.21875 50.515625 64.515625 
Q 56.984375 54.828125 56.984375 36.375 
Q 56.984375 17.96875 50.515625 8.265625 
Q 44.046875 -1.421875 31.78125 -1.421875 
Q 19.53125 -1.421875 13.0625 8.265625 
Q 6.59375 17.96875 6.59375 36.375 
Q 6.59375 54.828125 13.0625 64.515625 
Q 19.53125 74.21875 31.78125 74.21875 
z
" id="DejaVuSans-30"/>
       <path d="M 10.6875 12.40625 
L 21 12.40625 
L 21 0 
L 10.6875 0 
z
" id="DejaVuSans-2e"/>
      </defs>
      <g transform="translate(89.832483 518.598438)scale(0.1 -0.1)">
       <use xlink:href="#DejaVuSans-30"/>
       <use x="63.623047" xlink:href="#DejaVuSans-2e"/>
       <use x="95.410156" xlink:href="#DejaVuSans-30"/>
      </g>
     </g>
    </g>
    <g id="xtick_2">
     <g id="line2d_2">
      <g>
       <use style="stroke:#000000;stroke-width:0.8;" x="219.733195" xlink:href="#me34eb4922b" y="504"/>
      </g>
     </g>
     <g id="text_2">
      <!-- 0.2 -->
      <defs>
       <path d="M 19.1875 8.296875 
L 53.609375 8.296875 
L 53.609375 0 
L 7.328125 0 
L 7.328125 8.296875 
Q 12.9375 14.109375 22.625 23.890625 
Q 32.328125 33.6875 34.8125 36.53125 
Q 39.546875 41.84375 41.421875 45.53125 
Q 43.3125 49.21875 43.3125 52.78125 
Q 43.3125 58.59375 39.234375 62.25 
Q 35.15625 65.921875 28.609375 65.921875 
Q 23.96875 65.921875 18.8125 64.3125 
Q 13.671875 62.703125 7.8125 59.421875 
L 7.8125 69.390625 
Q 13.765625 71.78125 18.9375 73 
Q 24.125 74.21875 28.421875 74.21875 
Q 39.75 74.21875 46.484375 68.546875 
Q 53.21875 62.890625 53.21875 53.421875 
Q 53.21875 48.921875 51.53125 44.890625 
Q 49.859375 40.875 45.40625 35.40625 
Q 44.1875 33.984375 37.640625 27.21875 
Q 31.109375 20.453125 19.1875 8.296875 
z
" id="DejaVuSans-32"/>
      </defs>
      <g transform="translate(211.781632 518.598438)scale(0.1 -0.1)">
       <use xlink:href="#DejaVuSans-30"/>
       <use x="63.623047" xlink:href="#DejaVuSans-2e"/>
       <use x="95.410156" xlink:href="#DejaVuSans-32"/>
      </g>
     </g>
    </g>
    <g id="xtick_3">
     <g id="line2d_3">
      <g>
       <use style="stroke:#000000;stroke-width:0.8;" x="341.682344" xlink:href="#me34eb4922b" y="504"/>
      </g>
     </g>
     <g id="text_3">
      <!-- 0.4 -->
      <defs>
       <path d="M 37.796875 64.3125 
L 12.890625 25.390625 
L 37.796875 25.390625 
z
M 35.203125 72.90625 
L 47.609375 72.90625 
L 47.609375 25.390625 
L 58.015625 25.390625 
L 58.015625 17.1875 
L 47.609375 17.1875 
L 47.609375 0 
L 37.796875 0 
L 37.796875 17.1875 
L 4.890625 17.1875 
L 4.890625 26.703125 
z
" id="DejaVuSans-34"/>
      </defs>
      <g transform="translate(333.730781 518.598438)scale(0.1 -0.1)">
       <use xlink:href="#DejaVuSans-30"/>
       <use x="63.623047" xlink:href="#DejaVuSans-2e"/>
       <use x="95.410156" xlink:href="#DejaVuSans-34"/>
      </g>
     </g>
    </g>
    <g id="xtick_4">
     <g id="line2d_4">
      <g>
       <use style="stroke:#000000;stroke-width:0.8;" x="463.631493" xlink:href="#me34eb4922b" y="504"/>
      </g>
     </g>
     <g id="text_4">
      <!-- 0.6 -->
      <defs>
       <path d="M 33.015625 40.375 
Q 26.375 40.375 22.484375 35.828125 
Q 18.609375 31.296875 18.609375 23.390625 
Q 18.609375 15.53125 22.484375 10.953125 
Q 26.375 6.390625 33.015625 6.390625 
Q 39.65625 6.390625 43.53125 10.953125 
Q 47.40625 15.53125 47.40625 23.390625 
Q 47.40625 31.296875 43.53125 35.828125 
Q 39.65625 40.375 33.015625 40.375 
z
M 52.59375 71.296875 
L 52.59375 62.3125 
Q 48.875 64.0625 45.09375 64.984375 
Q 41.3125 65.921875 37.59375 65.921875 
Q 27.828125 65.921875 22.671875 59.328125 
Q 17.53125 52.734375 16.796875 39.40625 
Q 19.671875 43.65625 24.015625 45.921875 
Q 28.375 48.1875 33.59375 48.1875 
Q 44.578125 48.1875 50.953125 41.515625 
Q 57.328125 34.859375 57.328125 23.390625 
Q 57.328125 12.15625 50.6875 5.359375 
Q 44.046875 -1.421875 33.015625 -1.421875 
Q 20.359375 -1.421875 13.671875 8.265625 
Q 6.984375 17.96875 6.984375 36.375 
Q 6.984375 53.65625 15.1875 63.9375 
Q 23.390625 74.21875 37.203125 74.21875 
Q 40.921875 74.21875 44.703125 73.484375 
Q 48.484375 72.75 52.59375 71.296875 
z
" id="DejaVuSans-36"/>
      </defs>
      <g transform="translate(455.679931 518.598438)scale(0.1 -0.1)">
       <use xlink:href="#DejaVuSans-30"/>
       <use x="63.623047" xlink:href="#DejaVuSans-2e"/>
       <use x="95.410156" xlink:href="#DejaVuSans-36"/>
      </g>
     </g>
    </g>
    <g id="xtick_5">
     <g id="line2d_5">
      <g>
       <use style="stroke:#000000;stroke-width:0.8;" x="585.580643" xlink:href="#me34eb4922b" y="504"/>
      </g>
     </g>
     <g id="text_5">
      <!-- 0.8 -->
      <defs>
       <path d="M 31.78125 34.625 
Q 24.75 34.625 20.71875 30.859375 
Q 16.703125 27.09375 16.703125 20.515625 
Q 16.703125 13.921875 20.71875 10.15625 
Q 24.75 6.390625 31.78125 6.390625 
Q 38.8125 6.390625 42.859375 10.171875 
Q 46.921875 13.96875 46.921875 20.515625 
Q 46.921875 27.09375 42.890625 30.859375 
Q 38.875 34.625 31.78125 34.625 
z
M 21.921875 38.8125 
Q 15.578125 40.375 12.03125 44.71875 
Q 8.5 49.078125 8.5 55.328125 
Q 8.5 64.0625 14.71875 69.140625 
Q 20.953125 74.21875 31.78125 74.21875 
Q 42.671875 74.21875 48.875 69.140625 
Q 55.078125 64.0625 55.078125 55.328125 
Q 55.078125 49.078125 51.53125 44.71875 
Q 48 40.375 41.703125 38.8125 
Q 48.828125 37.15625 52.796875 32.3125 
Q 56.78125 27.484375 56.78125 20.515625 
Q 56.78125 9.90625 50.3125 4.234375 
Q 43.84375 -1.421875 31.78125 -1.421875 
Q 19.734375 -1.421875 13.25 4.234375 
Q 6.78125 9.90625 6.78125 20.515625 
Q 6.78125 27.484375 10.78125 32.3125 
Q 14.796875 37.15625 21.921875 38.8125 
z
M 18.3125 54.390625 
Q 18.3125 48.734375 21.84375 45.5625 
Q 25.390625 42.390625 31.78125 42.390625 
Q 38.140625 42.390625 41.71875 45.5625 
Q 45.3125 48.734375 45.3125 54.390625 
Q 45.3125 60.0625 41.71875 63.234375 
Q 38.140625 66.40625 31.78125 66.40625 
Q 25.390625 66.40625 21.84375 63.234375 
Q 18.3125 60.0625 18.3125 54.390625 
z
" id="DejaVuSans-38"/>
      </defs>
      <g transform="translate(577.62908 518.598438)scale(0.1 -0.1)">
       <use xlink:href="#DejaVuSans-30"/>
       <use x="63.623047" xlink:href="#DejaVuSans-2e"/>
       <use x="95.410156" xlink:href="#DejaVuSans-38"/>
      </g>
     </g>
    </g>
   </g>
   <g id="matplotlib.axis_2">
    <g id="ytick_1">
     <g id="line2d_6">
      <defs>
       <path d="M 0 0 
L -3.5 0 
" id="m490716b077" style="stroke:#000000;stroke-width:0.8;"/>
      </defs>
      <g>
       <use style="stroke:#000000;stroke-width:0.8;" x="90" xlink:href="#m490716b077" y="484.232727"/>
      </g>
     </g>
     <g id="text_6">
      <!-- 0.000 -->
      <g transform="translate(54.371875 488.031946)scale(0.1 -0.1)">
       <use xlink:href="#DejaVuSans-30"/>
       <use x="63.623047" xlink:href="#DejaVuSans-2e"/>
       <use x="95.410156" xlink:href="#DejaVuSans-30"/>
       <use x="159.033203" xlink:href="#DejaVuSans-30"/>
       <use x="222.65625" xlink:href="#DejaVuSans-30"/>
      </g>
     </g>
    </g>
    <g id="ytick_2">
     <g id="line2d_7">
      <g>
       <use style="stroke:#000000;stroke-width:0.8;" x="90" xlink:href="#m490716b077" y="434.802188"/>
      </g>
     </g>
     <g id="text_7">
      <!-- 0.005 -->
      <defs>
       <path d="M 10.796875 72.90625 
L 49.515625 72.90625 
L 49.515625 64.59375 
L 19.828125 64.59375 
L 19.828125 46.734375 
Q 21.96875 47.46875 24.109375 47.828125 
Q 26.265625 48.1875 28.421875 48.1875 
Q 40.625 48.1875 47.75 41.5 
Q 54.890625 34.8125 54.890625 23.390625 
Q 54.890625 11.625 47.5625 5.09375 
Q 40.234375 -1.421875 26.90625 -1.421875 
Q 22.3125 -1.421875 17.546875 -0.640625 
Q 12.796875 0.140625 7.71875 1.703125 
L 7.71875 11.625 
Q 12.109375 9.234375 16.796875 8.0625 
Q 21.484375 6.890625 26.703125 6.890625 
Q 35.15625 6.890625 40.078125 11.328125 
Q 45.015625 15.765625 45.015625 23.390625 
Q 45.015625 31 40.078125 35.4375 
Q 35.15625 39.890625 26.703125 39.890625 
Q 22.75 39.890625 18.8125 39.015625 
Q 14.890625 38.140625 10.796875 36.28125 
z
" id="DejaVuSans-35"/>
      </defs>
      <g transform="translate(54.371875 438.601407)scale(0.1 -0.1)">
       <use xlink:href="#DejaVuSans-30"/>
       <use x="63.623047" xlink:href="#DejaVuSans-2e"/>
       <use x="95.410156" xlink:href="#DejaVuSans-30"/>
       <use x="159.033203" xlink:href="#DejaVuSans-30"/>
       <use x="222.65625" xlink:href="#DejaVuSans-35"/>
      </g>
     </g>
    </g>
    <g id="ytick_3">
     <g id="line2d_8">
      <g>
       <use style="stroke:#000000;stroke-width:0.8;" x="90" xlink:href="#m490716b077" y="385.371648"/>
      </g>
     </g>
     <g id="text_8">
      <!-- 0.010 -->
      <defs>
       <path d="M 12.40625 8.296875 
L 28.515625 8.296875 
L 28.515625 63.921875 
L 10.984375 60.40625 
L 10.984375 69.390625 
L 28.421875 72.90625 
L 38.28125 72.90625 
L 38.28125 8.296875 
L 54.390625 8.296875 
L 54.390625 0 
L 12.40625 0 
z
" id="DejaVuSans-31"/>
      </defs>
      <g transform="translate(54.371875 389.170867)scale(0.1 -0.1)">
       <use xlink:href="#DejaVuSans-30"/>
       <use x="63.623047" xlink:href="#DejaVuSans-2e"/>
       <use x="95.410156" xlink:href="#DejaVuSans-30"/>
       <use x="159.033203" xlink:href="#DejaVuSans-31"/>
       <use x="222.65625" xlink:href="#DejaVuSans-30"/>
      </g>
     </g>
    </g>
    <g id="ytick_4">
     <g id="line2d_9">
      <g>
       <use style="stroke:#000000;stroke-width:0.8;" x="90" xlink:href="#m490716b077" y="335.941109"/>
      </g>
     </g>
     <g id="text_9">
      <!-- 0.015 -->
      <g transform="translate(54.371875 339.740328)scale(0.1 -0.1)">
       <use xlink:href="#DejaVuSans-30"/>
       <use x="63.623047" xlink:href="#DejaVuSans-2e"/>
       <use x="95.410156" xlink:href="#DejaVuSans-30"/>
       <use x="159.033203" xlink:href="#DejaVuSans-31"/>
       <use x="222.65625" xlink:href="#DejaVuSans-35"/>
      </g>
     </g>
    </g>
    <g id="ytick_5">
     <g id="line2d_10">
      <g>
       <use style="stroke:#000000;stroke-width:0.8;" x="90" xlink:href="#m490716b077" y="286.510569"/>
      </g>
     </g>
     <g id="text_10">
      <!-- 0.020 -->
      <g transform="translate(54.371875 290.309788)scale(0.1 -0.1)">
       <use xlink:href="#DejaVuSans-30"/>
       <use x="63.623047" xlink:href="#DejaVuSans-2e"/>
       <use x="95.410156" xlink:href="#DejaVuSans-30"/>
       <use x="159.033203" xlink:href="#DejaVuSans-32"/>
       <use x="222.65625" xlink:href="#DejaVuSans-30"/>
      </g>
     </g>
    </g>
    <g id="ytick_6">
     <g id="line2d_11">
      <g>
       <use style="stroke:#000000;stroke-width:0.8;" x="90" xlink:href="#m490716b077" y="237.08003"/>
      </g>
     </g>
     <g id="text_11">
      <!-- 0.025 -->
      <g transform="translate(54.371875 240.879249)scale(0.1 -0.1)">
       <use xlink:href="#DejaVuSans-30"/>
       <use x="63.623047" xlink:href="#DejaVuSans-2e"/>
       <use x="95.410156" xlink:href="#DejaVuSans-30"/>
       <use x="159.033203" xlink:href="#DejaVuSans-32"/>
       <use x="222.65625" xlink:href="#DejaVuSans-35"/>
      </g>
     </g>
    </g>
    <g id="ytick_7">
     <g id="line2d_12">
      <g>
       <use style="stroke:#000000;stroke-width:0.8;" x="90" xlink:href="#m490716b077" y="187.649491"/>
      </g>
     </g>
     <g id="text_12">
      <!-- 0.030 -->
      <defs>
       <path d="M 40.578125 39.3125 
Q 47.65625 37.796875 51.625 33 
Q 55.609375 28.21875 55.609375 21.1875 
Q 55.609375 10.40625 48.1875 4.484375 
Q 40.765625 -1.421875 27.09375 -1.421875 
Q 22.515625 -1.421875 17.65625 -0.515625 
Q 12.796875 0.390625 7.625 2.203125 
L 7.625 11.71875 
Q 11.71875 9.328125 16.59375 8.109375 
Q 21.484375 6.890625 26.8125 6.890625 
Q 36.078125 6.890625 40.9375 10.546875 
Q 45.796875 14.203125 45.796875 21.1875 
Q 45.796875 27.640625 41.28125 31.265625 
Q 36.765625 34.90625 28.71875 34.90625 
L 20.21875 34.90625 
L 20.21875 43.015625 
L 29.109375 43.015625 
Q 36.375 43.015625 40.234375 45.921875 
Q 44.09375 48.828125 44.09375 54.296875 
Q 44.09375 59.90625 40.109375 62.90625 
Q 36.140625 65.921875 28.71875 65.921875 
Q 24.65625 65.921875 20.015625 65.03125 
Q 15.375 64.15625 9.8125 62.3125 
L 9.8125 71.09375 
Q 15.4375 72.65625 20.34375 73.4375 
Q 25.25 74.21875 29.59375 74.21875 
Q 40.828125 74.21875 47.359375 69.109375 
Q 53.90625 64.015625 53.90625 55.328125 
Q 53.90625 49.265625 50.4375 45.09375 
Q 46.96875 40.921875 40.578125 39.3125 
z
" id="DejaVuSans-33"/>
      </defs>
      <g transform="translate(54.371875 191.448709)scale(0.1 -0.1)">
       <use xlink:href="#DejaVuSans-30"/>
       <use x="63.623047" xlink:href="#DejaVuSans-2e"/>
       <use x="95.410156" xlink:href="#DejaVuSans-30"/>
       <use x="159.033203" xlink:href="#DejaVuSans-33"/>
       <use x="222.65625" xlink:href="#DejaVuSans-30"/>
      </g>
     </g>
    </g>
    <g id="ytick_8">
     <g id="line2d_13">
      <g>
       <use style="stroke:#000000;stroke-width:0.8;" x="90" xlink:href="#m490716b077" y="138.218951"/>
      </g>
     </g>
     <g id="text_13">
      <!-- 0.035 -->
      <g transform="translate(54.371875 142.01817)scale(0.1 -0.1)">
       <use xlink:href="#DejaVuSans-30"/>
       <use x="63.623047" xlink:href="#DejaVuSans-2e"/>
       <use x="95.410156" xlink:href="#DejaVuSans-30"/>
       <use x="159.033203" xlink:href="#DejaVuSans-33"/>
       <use x="222.65625" xlink:href="#DejaVuSans-35"/>
      </g>
     </g>
    </g>
    <g id="ytick_9">
     <g id="line2d_14">
      <g>
       <use style="stroke:#000000;stroke-width:0.8;" x="90" xlink:href="#m490716b077" y="88.788412"/>
      </g>
     </g>
     <g id="text_14">
      <!-- 0.040 -->
      <g transform="translate(54.371875 92.58763)scale(0.1 -0.1)">
       <use xlink:href="#DejaVuSans-30"/>
       <use x="63.623047" xlink:href="#DejaVuSans-2e"/>
       <use x="95.410156" xlink:href="#DejaVuSans-30"/>
       <use x="159.033203" xlink:href="#DejaVuSans-34"/>
       <use x="222.65625" xlink:href="#DejaVuSans-30"/>
      </g>
     </g>
    </g>
   </g>
   <g id="line2d_15">
    <path clip-path="url(#p0cfee336f1)" d="M 161.683626 484.232727 
L 156.009336 477.411313 
L 151.355463 471.479648 
L 147.523247 466.240011 
L 144.398129 461.59354 
L 141.869596 457.441375 
L 139.83596 453.684654 
L 138.209125 450.224516 
L 136.918908 446.962101 
L 135.944289 443.897407 
L 135.237466 440.931575 
L 134.787927 438.064603 
L 134.579964 435.296493 
L 134.597955 432.528383 
L 134.841571 429.760273 
L 135.306419 426.992163 
L 136.012447 424.125191 
L 136.970227 421.159359 
L 138.228342 417.995804 
L 139.808403 414.634528 
L 141.781564 410.976668 
L 144.173995 407.022225 
L 147.07092 402.672337 
L 150.569592 397.828144 
L 154.77509 392.390785 
L 159.879446 386.162537 
L 166.090303 378.945678 
L 173.623233 370.542487 
L 182.881386 360.557518 
L 194.37908 348.496466 
L 208.740381 333.766165 
L 226.992061 315.378005 
L 250.477769 292.04679 
L 281.360501 261.696439 
L 322.838108 221.262257 
L 380.270661 165.60347 
L 459.756582 88.887273 
L 459.756582 88.887273 
" style="fill:none;stroke:#1f77b4;stroke-linecap:square;stroke-width:1.5;"/>
   </g>
   <g id="line2d_16">
    <path clip-path="url(#p0cfee336f1)" d="M 174.568011 484.232727 
L 163.971897 476.323841 
L 155.852377 469.996732 
L 149.602017 464.855956 
L 144.764385 460.604929 
L 140.924636 456.947069 
L 137.914833 453.783515 
L 135.575497 451.015405 
L 133.765039 448.543878 
L 132.368425 446.270073 
L 131.346748 444.19399 
L 130.620202 442.216769 
L 130.167836 440.338408 
L 129.962196 438.558909 
L 129.977743 436.779409 
L 130.214161 434.99991 
L 130.698002 433.121549 
L 131.412196 431.243189 
L 132.397098 429.265967 
L 133.73337 427.091024 
L 135.460838 424.718358 
L 137.696014 422.049109 
L 140.484579 419.083276 
L 143.96159 415.722 
L 148.277304 411.866418 
L 153.710822 407.318808 
L 160.565935 401.881449 
L 169.289096 395.257756 
L 180.478836 387.052287 
L 195.026862 376.671873 
L 214.412386 363.127906 
L 240.719395 345.036328 
L 277.363372 320.123336 
L 330.280383 284.434487 
L 410.452477 230.65406 
L 539.106075 144.644921 
L 622.636364 88.887273 
L 622.636364 88.887273 
" style="fill:none;stroke:#ff7f0e;stroke-linecap:square;stroke-width:1.5;"/>
   </g>
   <g id="line2d_17">
    <path clip-path="url(#p0cfee336f1)" d="M 150.2869 484.232727 
L 143.525162 475.829536 
L 138.308039 469.008121 
L 134.194485 463.274179 
L 130.985949 458.429986 
L 128.492417 454.27782 
L 126.544269 450.61996 
L 125.004528 447.258684 
L 123.847031 444.19399 
L 123.03162 441.42588 
L 122.473333 438.756631 
L 122.161944 436.186243 
L 122.080003 433.714716 
L 122.2135 431.243189 
L 122.577074 428.672801 
L 123.186625 426.003552 
L 124.050916 423.235442 
L 125.213996 420.269609 
L 126.741831 417.007194 
L 128.661032 413.448195 
L 131.11082 409.394891 
L 134.125968 404.847281 
L 137.941976 399.508783 
L 142.751128 393.181674 
L 148.830216 385.569371 
L 156.547812 376.276429 
L 166.537373 364.610822 
L 179.71333 349.583938 
L 197.361807 329.811722 
L 221.679025 302.921509 
L 256.328768 264.958854 
L 307.815463 208.904623 
L 388.416125 121.511429 
L 418.555311 88.887273 
L 418.555311 88.887273 
" style="fill:none;stroke:#2ca02c;stroke-linecap:square;stroke-width:1.5;"/>
   </g>
   <g id="line2d_18">
    <path clip-path="url(#p0cfee336f1)" d="M 153.761727 484.232727 
L 145.271773 475.434091 
L 138.889161 468.513816 
L 134.071633 462.977595 
L 130.393943 458.429986 
L 127.548796 454.574404 
L 125.337622 451.213127 
L 123.649233 448.247295 
L 122.384454 445.578045 
L 121.49562 443.20538 
L 120.876675 440.931575 
L 120.515461 438.756631 
L 120.391437 436.680548 
L 120.486717 434.604466 
L 120.798575 432.528383 
L 121.348134 430.353439 
L 122.14984 428.079634 
L 123.259192 425.608107 
L 124.700967 422.938858 
L 126.620005 419.874165 
L 129.062531 416.414027 
L 132.134603 412.459584 
L 136.032498 407.813113 
L 141.061587 402.178032 
L 147.549966 395.257756 
L 156.027366 386.557981 
L 167.239232 375.386679 
L 182.454963 360.557518 
L 203.587489 340.290996 
L 234.031561 311.423561 
L 279.837999 268.320131 
L 352.684132 200.105986 
L 471.794072 88.887273 
L 471.794072 88.887273 
" style="fill:none;stroke:#d62728;stroke-linecap:square;stroke-width:1.5;"/>
   </g>
   <g id="line2d_19">
    <path clip-path="url(#p0cfee336f1)" d="M 144.729354 484.232727 
L 136.978431 474.247758 
L 131.263214 466.536594 
L 127.057409 460.506068 
L 123.869635 455.563014 
L 121.447792 451.410849 
L 119.621332 447.85185 
L 118.244331 444.688296 
L 117.240273 441.821324 
L 116.569215 439.250936 
L 116.15153 436.779409 
L 115.975064 434.406744 
L 116.025083 432.034078 
L 116.299754 429.661412 
L 116.814181 427.189885 
L 117.576887 424.619497 
L 118.628806 421.851386 
L 120.03191 418.786693 
L 121.863561 415.326555 
L 124.271862 411.273251 
L 127.362066 406.527919 
L 131.375173 400.793977 
L 136.571523 393.77484 
L 143.448998 384.877343 
L 152.686633 373.310597 
L 165.384821 357.789407 
L 183.323265 336.237692 
L 209.636195 304.997591 
L 250.253907 257.148829 
L 317.040491 178.850855 
L 393.963423 88.887273 
L 393.963423 88.887273 
" style="fill:none;stroke:#9467bd;stroke-linecap:square;stroke-width:1.5;"/>
   </g>
   <g id="line2d_20">
    <path clip-path="url(#p0cfee336f1)" d="M 142.528833 484.232727 
L 135.10013 474.544342 
L 129.682064 467.129761 
L 125.681163 461.296957 
L 122.680797 456.551625 
L 120.373607 452.498321 
L 118.6533 449.038183 
L 117.37334 445.97349 
L 116.45542 443.20538 
L 115.837098 440.634991 
L 115.487632 438.262326 
L 115.363798 435.88966 
L 115.470337 433.516994 
L 115.803163 431.144328 
L 116.377293 428.672801 
L 117.234363 426.003552 
L 118.394532 423.136581 
L 119.91654 419.973026 
L 121.931028 416.315166 
L 124.536448 412.06414 
L 127.897094 407.022225 
L 132.259267 400.892838 
L 138.0336 393.181674 
L 145.729626 383.295566 
L 156.185757 370.245903 
L 170.826259 352.352048 
L 192.00302 326.84589 
L 223.998659 288.685513 
L 275.210945 227.984811 
L 363.696455 123.48865 
L 393.03484 88.887273 
L 393.03484 88.887273 
" style="fill:none;stroke:#8c564b;stroke-linecap:square;stroke-width:1.5;"/>
   </g>
   <g id="patch_3">
    <path d="M 90 504 
L 90 69.12 
" style="fill:none;stroke:#000000;stroke-linecap:square;stroke-linejoin:miter;stroke-width:0.8;"/>
   </g>
   <g id="patch_4">
    <path d="M 648 504 
L 648 69.12 
" style="fill:none;stroke:#000000;stroke-linecap:square;stroke-linejoin:miter;stroke-width:0.8;"/>
   </g>
   <g id="patch_5">
    <path d="M 90 504 
L 648 504 
" style="fill:none;stroke:#000000;stroke-linecap:square;stroke-linejoin:miter;stroke-width:0.8;"/>
   </g>
   <g id="patch_6">
    <path d="M 90 69.12 
L 648 69.12 
" style="fill:none;stroke:#000000;stroke-linecap:square;stroke-linejoin:miter;stroke-width:0.8;"/>
   </g>
   <g id="legend_1">
    <g id="patch_7">
     <path d="M 97 165.18875 
L 292.710938 165.18875 
Q 294.710938 165.18875 294.710938 163.18875 
L 294.710938 76.12 
Q 294.710938 74.12 292.710938 74.12 
L 97 74.12 
Q 95 74.12 95 76.12 
L 95 163.18875 
Q 95 165.18875 97 165.18875 
z
" style="fill:#ffffff;opacity:0.8;stroke:#cccccc;stroke-linejoin:miter;"/>
    </g>
    <g id="line2d_21">
     <path d="M 99 82.218438 
L 119 82.218438 
" style="fill:none;stroke:#1f77b4;stroke-linecap:square;stroke-width:1.5;"/>
    </g>
    <g id="line2d_22"/>
    <g id="text_15">
     <!-- LPM, target = 5%% -->
     <defs>
      <path d="M 9.8125 72.90625 
L 19.671875 72.90625 
L 19.671875 8.296875 
L 55.171875 8.296875 
L 55.171875 0 
L 9.8125 0 
z
" id="DejaVuSans-4c"/>
      <path d="M 19.671875 64.796875 
L 19.671875 37.40625 
L 32.078125 37.40625 
Q 38.96875 37.40625 42.71875 40.96875 
Q 46.484375 44.53125 46.484375 51.125 
Q 46.484375 57.671875 42.71875 61.234375 
Q 38.96875 64.796875 32.078125 64.796875 
z
M 9.8125 72.90625 
L 32.078125 72.90625 
Q 44.34375 72.90625 50.609375 67.359375 
Q 56.890625 61.8125 56.890625 51.125 
Q 56.890625 40.328125 50.609375 34.8125 
Q 44.34375 29.296875 32.078125 29.296875 
L 19.671875 29.296875 
L 19.671875 0 
L 9.8125 0 
z
" id="DejaVuSans-50"/>
      <path d="M 9.8125 72.90625 
L 24.515625 72.90625 
L 43.109375 23.296875 
L 61.8125 72.90625 
L 76.515625 72.90625 
L 76.515625 0 
L 66.890625 0 
L 66.890625 64.015625 
L 48.09375 14.015625 
L 38.1875 14.015625 
L 19.390625 64.015625 
L 19.390625 0 
L 9.8125 0 
z
" id="DejaVuSans-4d"/>
      <path d="M 11.71875 12.40625 
L 22.015625 12.40625 
L 22.015625 4 
L 14.015625 -11.625 
L 7.71875 -11.625 
L 11.71875 4 
z
" id="DejaVuSans-2c"/>
      <path id="DejaVuSans-20"/>
      <path d="M 18.3125 70.21875 
L 18.3125 54.6875 
L 36.8125 54.6875 
L 36.8125 47.703125 
L 18.3125 47.703125 
L 18.3125 18.015625 
Q 18.3125 11.328125 20.140625 9.421875 
Q 21.96875 7.515625 27.59375 7.515625 
L 36.8125 7.515625 
L 36.8125 0 
L 27.59375 0 
Q 17.1875 0 13.234375 3.875 
Q 9.28125 7.765625 9.28125 18.015625 
L 9.28125 47.703125 
L 2.6875 47.703125 
L 2.6875 54.6875 
L 9.28125 54.6875 
L 9.28125 70.21875 
z
" id="DejaVuSans-74"/>
      <path d="M 34.28125 27.484375 
Q 23.390625 27.484375 19.1875 25 
Q 14.984375 22.515625 14.984375 16.5 
Q 14.984375 11.71875 18.140625 8.90625 
Q 21.296875 6.109375 26.703125 6.109375 
Q 34.1875 6.109375 38.703125 11.40625 
Q 43.21875 16.703125 43.21875 25.484375 
L 43.21875 27.484375 
z
M 52.203125 31.203125 
L 52.203125 0 
L 43.21875 0 
L 43.21875 8.296875 
Q 40.140625 3.328125 35.546875 0.953125 
Q 30.953125 -1.421875 24.3125 -1.421875 
Q 15.921875 -1.421875 10.953125 3.296875 
Q 6 8.015625 6 15.921875 
Q 6 25.140625 12.171875 29.828125 
Q 18.359375 34.515625 30.609375 34.515625 
L 43.21875 34.515625 
L 43.21875 35.40625 
Q 43.21875 41.609375 39.140625 45 
Q 35.0625 48.390625 27.6875 48.390625 
Q 23 48.390625 18.546875 47.265625 
Q 14.109375 46.140625 10.015625 43.890625 
L 10.015625 52.203125 
Q 14.9375 54.109375 19.578125 55.046875 
Q 24.21875 56 28.609375 56 
Q 40.484375 56 46.34375 49.84375 
Q 52.203125 43.703125 52.203125 31.203125 
z
" id="DejaVuSans-61"/>
      <path d="M 41.109375 46.296875 
Q 39.59375 47.171875 37.8125 47.578125 
Q 36.03125 48 33.890625 48 
Q 26.265625 48 22.1875 43.046875 
Q 18.109375 38.09375 18.109375 28.8125 
L 18.109375 0 
L 9.078125 0 
L 9.078125 54.6875 
L 18.109375 54.6875 
L 18.109375 46.1875 
Q 20.953125 51.171875 25.484375 53.578125 
Q 30.03125 56 36.53125 56 
Q 37.453125 56 38.578125 55.875 
Q 39.703125 55.765625 41.0625 55.515625 
z
" id="DejaVuSans-72"/>
      <path d="M 45.40625 27.984375 
Q 45.40625 37.75 41.375 43.109375 
Q 37.359375 48.484375 30.078125 48.484375 
Q 22.859375 48.484375 18.828125 43.109375 
Q 14.796875 37.75 14.796875 27.984375 
Q 14.796875 18.265625 18.828125 12.890625 
Q 22.859375 7.515625 30.078125 7.515625 
Q 37.359375 7.515625 41.375 12.890625 
Q 45.40625 18.265625 45.40625 27.984375 
z
M 54.390625 6.78125 
Q 54.390625 -7.171875 48.1875 -13.984375 
Q 42 -20.796875 29.203125 -20.796875 
Q 24.46875 -20.796875 20.265625 -20.09375 
Q 16.0625 -19.390625 12.109375 -17.921875 
L 12.109375 -9.1875 
Q 16.0625 -11.328125 19.921875 -12.34375 
Q 23.78125 -13.375 27.78125 -13.375 
Q 36.625 -13.375 41.015625 -8.765625 
Q 45.40625 -4.15625 45.40625 5.171875 
L 45.40625 9.625 
Q 42.625 4.78125 38.28125 2.390625 
Q 33.9375 0 27.875 0 
Q 17.828125 0 11.671875 7.65625 
Q 5.515625 15.328125 5.515625 27.984375 
Q 5.515625 40.671875 11.671875 48.328125 
Q 17.828125 56 27.875 56 
Q 33.9375 56 38.28125 53.609375 
Q 42.625 51.21875 45.40625 46.390625 
L 45.40625 54.6875 
L 54.390625 54.6875 
z
" id="DejaVuSans-67"/>
      <path d="M 56.203125 29.59375 
L 56.203125 25.203125 
L 14.890625 25.203125 
Q 15.484375 15.921875 20.484375 11.0625 
Q 25.484375 6.203125 34.421875 6.203125 
Q 39.59375 6.203125 44.453125 7.46875 
Q 49.3125 8.734375 54.109375 11.28125 
L 54.109375 2.78125 
Q 49.265625 0.734375 44.1875 -0.34375 
Q 39.109375 -1.421875 33.890625 -1.421875 
Q 20.796875 -1.421875 13.15625 6.1875 
Q 5.515625 13.8125 5.515625 26.8125 
Q 5.515625 40.234375 12.765625 48.109375 
Q 20.015625 56 32.328125 56 
Q 43.359375 56 49.78125 48.890625 
Q 56.203125 41.796875 56.203125 29.59375 
z
M 47.21875 32.234375 
Q 47.125 39.59375 43.09375 43.984375 
Q 39.0625 48.390625 32.421875 48.390625 
Q 24.90625 48.390625 20.390625 44.140625 
Q 15.875 39.890625 15.1875 32.171875 
z
" id="DejaVuSans-65"/>
      <path d="M 10.59375 45.40625 
L 73.1875 45.40625 
L 73.1875 37.203125 
L 10.59375 37.203125 
z
M 10.59375 25.484375 
L 73.1875 25.484375 
L 73.1875 17.1875 
L 10.59375 17.1875 
z
" id="DejaVuSans-3d"/>
      <path d="M 72.703125 32.078125 
Q 68.453125 32.078125 66.03125 28.46875 
Q 63.625 24.859375 63.625 18.40625 
Q 63.625 12.0625 66.03125 8.421875 
Q 68.453125 4.78125 72.703125 4.78125 
Q 76.859375 4.78125 79.265625 8.421875 
Q 81.6875 12.0625 81.6875 18.40625 
Q 81.6875 24.8125 79.265625 28.4375 
Q 76.859375 32.078125 72.703125 32.078125 
z
M 72.703125 38.28125 
Q 80.421875 38.28125 84.953125 32.90625 
Q 89.5 27.546875 89.5 18.40625 
Q 89.5 9.28125 84.9375 3.921875 
Q 80.375 -1.421875 72.703125 -1.421875 
Q 64.890625 -1.421875 60.34375 3.921875 
Q 55.8125 9.28125 55.8125 18.40625 
Q 55.8125 27.59375 60.375 32.9375 
Q 64.9375 38.28125 72.703125 38.28125 
z
M 22.3125 68.015625 
Q 18.109375 68.015625 15.6875 64.375 
Q 13.28125 60.75 13.28125 54.390625 
Q 13.28125 47.953125 15.671875 44.328125 
Q 18.0625 40.71875 22.3125 40.71875 
Q 26.5625 40.71875 28.96875 44.328125 
Q 31.390625 47.953125 31.390625 54.390625 
Q 31.390625 60.6875 28.953125 64.34375 
Q 26.515625 68.015625 22.3125 68.015625 
z
M 66.40625 74.21875 
L 74.21875 74.21875 
L 28.609375 -1.421875 
L 20.796875 -1.421875 
z
M 22.3125 74.21875 
Q 30.03125 74.21875 34.609375 68.875 
Q 39.203125 63.53125 39.203125 54.390625 
Q 39.203125 45.171875 34.640625 39.84375 
Q 30.078125 34.515625 22.3125 34.515625 
Q 14.546875 34.515625 10.03125 39.859375 
Q 5.515625 45.21875 5.515625 54.390625 
Q 5.515625 63.484375 10.046875 68.84375 
Q 14.59375 74.21875 22.3125 74.21875 
z
" id="DejaVuSans-25"/>
     </defs>
     <g transform="translate(127 85.718438)scale(0.1 -0.1)">
      <use xlink:href="#DejaVuSans-4c"/>
      <use x="55.712891" xlink:href="#DejaVuSans-50"/>
      <use x="116.015625" xlink:href="#DejaVuSans-4d"/>
      <use x="202.294922" xlink:href="#DejaVuSans-2c"/>
      <use x="234.082031" xlink:href="#DejaVuSans-20"/>
      <use x="265.869141" xlink:href="#DejaVuSans-74"/>
      <use x="305.078125" xlink:href="#DejaVuSans-61"/>
      <use x="366.357422" xlink:href="#DejaVuSans-72"/>
      <use x="407.455078" xlink:href="#DejaVuSans-67"/>
      <use x="470.931641" xlink:href="#DejaVuSans-65"/>
      <use x="532.455078" xlink:href="#DejaVuSans-74"/>
      <use x="571.664062" xlink:href="#DejaVuSans-20"/>
      <use x="603.451172" xlink:href="#DejaVuSans-3d"/>
      <use x="687.240234" xlink:href="#DejaVuSans-20"/>
      <use x="719.027344" xlink:href="#DejaVuSans-35"/>
      <use x="782.650391" xlink:href="#DejaVuSans-25"/>
      <use x="877.669922" xlink:href="#DejaVuSans-25"/>
     </g>
    </g>
    <g id="line2d_23">
     <path d="M 99 96.896563 
L 119 96.896563 
" style="fill:none;stroke:#ff7f0e;stroke-linecap:square;stroke-width:1.5;"/>
    </g>
    <g id="line2d_24"/>
    <g id="text_16">
     <!-- LPM approximation, target = 5% -->
     <defs>
      <path d="M 18.109375 8.203125 
L 18.109375 -20.796875 
L 9.078125 -20.796875 
L 9.078125 54.6875 
L 18.109375 54.6875 
L 18.109375 46.390625 
Q 20.953125 51.265625 25.265625 53.625 
Q 29.59375 56 35.59375 56 
Q 45.5625 56 51.78125 48.09375 
Q 58.015625 40.1875 58.015625 27.296875 
Q 58.015625 14.40625 51.78125 6.484375 
Q 45.5625 -1.421875 35.59375 -1.421875 
Q 29.59375 -1.421875 25.265625 0.953125 
Q 20.953125 3.328125 18.109375 8.203125 
z
M 48.6875 27.296875 
Q 48.6875 37.203125 44.609375 42.84375 
Q 40.53125 48.484375 33.40625 48.484375 
Q 26.265625 48.484375 22.1875 42.84375 
Q 18.109375 37.203125 18.109375 27.296875 
Q 18.109375 17.390625 22.1875 11.75 
Q 26.265625 6.109375 33.40625 6.109375 
Q 40.53125 6.109375 44.609375 11.75 
Q 48.6875 17.390625 48.6875 27.296875 
z
" id="DejaVuSans-70"/>
      <path d="M 30.609375 48.390625 
Q 23.390625 48.390625 19.1875 42.75 
Q 14.984375 37.109375 14.984375 27.296875 
Q 14.984375 17.484375 19.15625 11.84375 
Q 23.34375 6.203125 30.609375 6.203125 
Q 37.796875 6.203125 41.984375 11.859375 
Q 46.1875 17.53125 46.1875 27.296875 
Q 46.1875 37.015625 41.984375 42.703125 
Q 37.796875 48.390625 30.609375 48.390625 
z
M 30.609375 56 
Q 42.328125 56 49.015625 48.375 
Q 55.71875 40.765625 55.71875 27.296875 
Q 55.71875 13.875 49.015625 6.21875 
Q 42.328125 -1.421875 30.609375 -1.421875 
Q 18.84375 -1.421875 12.171875 6.21875 
Q 5.515625 13.875 5.515625 27.296875 
Q 5.515625 40.765625 12.171875 48.375 
Q 18.84375 56 30.609375 56 
z
" id="DejaVuSans-6f"/>
      <path d="M 54.890625 54.6875 
L 35.109375 28.078125 
L 55.90625 0 
L 45.3125 0 
L 29.390625 21.484375 
L 13.484375 0 
L 2.875 0 
L 24.125 28.609375 
L 4.6875 54.6875 
L 15.28125 54.6875 
L 29.78125 35.203125 
L 44.28125 54.6875 
z
" id="DejaVuSans-78"/>
      <path d="M 9.421875 54.6875 
L 18.40625 54.6875 
L 18.40625 0 
L 9.421875 0 
z
M 9.421875 75.984375 
L 18.40625 75.984375 
L 18.40625 64.59375 
L 9.421875 64.59375 
z
" id="DejaVuSans-69"/>
      <path d="M 52 44.1875 
Q 55.375 50.25 60.0625 53.125 
Q 64.75 56 71.09375 56 
Q 79.640625 56 84.28125 50.015625 
Q 88.921875 44.046875 88.921875 33.015625 
L 88.921875 0 
L 79.890625 0 
L 79.890625 32.71875 
Q 79.890625 40.578125 77.09375 44.375 
Q 74.3125 48.1875 68.609375 48.1875 
Q 61.625 48.1875 57.5625 43.546875 
Q 53.515625 38.921875 53.515625 30.90625 
L 53.515625 0 
L 44.484375 0 
L 44.484375 32.71875 
Q 44.484375 40.625 41.703125 44.40625 
Q 38.921875 48.1875 33.109375 48.1875 
Q 26.21875 48.1875 22.15625 43.53125 
Q 18.109375 38.875 18.109375 30.90625 
L 18.109375 0 
L 9.078125 0 
L 9.078125 54.6875 
L 18.109375 54.6875 
L 18.109375 46.1875 
Q 21.1875 51.21875 25.484375 53.609375 
Q 29.78125 56 35.6875 56 
Q 41.65625 56 45.828125 52.96875 
Q 50 49.953125 52 44.1875 
z
" id="DejaVuSans-6d"/>
      <path d="M 54.890625 33.015625 
L 54.890625 0 
L 45.90625 0 
L 45.90625 32.71875 
Q 45.90625 40.484375 42.875 44.328125 
Q 39.84375 48.1875 33.796875 48.1875 
Q 26.515625 48.1875 22.3125 43.546875 
Q 18.109375 38.921875 18.109375 30.90625 
L 18.109375 0 
L 9.078125 0 
L 9.078125 54.6875 
L 18.109375 54.6875 
L 18.109375 46.1875 
Q 21.34375 51.125 25.703125 53.5625 
Q 30.078125 56 35.796875 56 
Q 45.21875 56 50.046875 50.171875 
Q 54.890625 44.34375 54.890625 33.015625 
z
" id="DejaVuSans-6e"/>
     </defs>
     <g transform="translate(127 100.396563)scale(0.1 -0.1)">
      <use xlink:href="#DejaVuSans-4c"/>
      <use x="55.712891" xlink:href="#DejaVuSans-50"/>
      <use x="116.015625" xlink:href="#DejaVuSans-4d"/>
      <use x="202.294922" xlink:href="#DejaVuSans-20"/>
      <use x="234.082031" xlink:href="#DejaVuSans-61"/>
      <use x="295.361328" xlink:href="#DejaVuSans-70"/>
      <use x="358.837891" xlink:href="#DejaVuSans-70"/>
      <use x="422.314453" xlink:href="#DejaVuSans-72"/>
      <use x="463.396484" xlink:href="#DejaVuSans-6f"/>
      <use x="524.53125" xlink:href="#DejaVuSans-78"/>
      <use x="583.710938" xlink:href="#DejaVuSans-69"/>
      <use x="611.494141" xlink:href="#DejaVuSans-6d"/>
      <use x="708.90625" xlink:href="#DejaVuSans-61"/>
      <use x="770.185547" xlink:href="#DejaVuSans-74"/>
      <use x="809.394531" xlink:href="#DejaVuSans-69"/>
      <use x="837.177734" xlink:href="#DejaVuSans-6f"/>
      <use x="898.359375" xlink:href="#DejaVuSans-6e"/>
      <use x="961.738281" xlink:href="#DejaVuSans-2c"/>
      <use x="993.525391" xlink:href="#DejaVuSans-20"/>
      <use x="1025.3125" xlink:href="#DejaVuSans-74"/>
      <use x="1064.521484" xlink:href="#DejaVuSans-61"/>
      <use x="1125.800781" xlink:href="#DejaVuSans-72"/>
      <use x="1166.898438" xlink:href="#DejaVuSans-67"/>
      <use x="1230.375" xlink:href="#DejaVuSans-65"/>
      <use x="1291.898438" xlink:href="#DejaVuSans-74"/>
      <use x="1331.107422" xlink:href="#DejaVuSans-20"/>
      <use x="1362.894531" xlink:href="#DejaVuSans-3d"/>
      <use x="1446.683594" xlink:href="#DejaVuSans-20"/>
      <use x="1478.470703" xlink:href="#DejaVuSans-35"/>
      <use x="1542.09375" xlink:href="#DejaVuSans-25"/>
     </g>
    </g>
    <g id="line2d_25">
     <path d="M 99 111.574688 
L 119 111.574688 
" style="fill:none;stroke:#2ca02c;stroke-linecap:square;stroke-width:1.5;"/>
    </g>
    <g id="line2d_26"/>
    <g id="text_17">
     <!-- LPM, target = 2%% -->
     <g transform="translate(127 115.074688)scale(0.1 -0.1)">
      <use xlink:href="#DejaVuSans-4c"/>
      <use x="55.712891" xlink:href="#DejaVuSans-50"/>
      <use x="116.015625" xlink:href="#DejaVuSans-4d"/>
      <use x="202.294922" xlink:href="#DejaVuSans-2c"/>
      <use x="234.082031" xlink:href="#DejaVuSans-20"/>
      <use x="265.869141" xlink:href="#DejaVuSans-74"/>
      <use x="305.078125" xlink:href="#DejaVuSans-61"/>
      <use x="366.357422" xlink:href="#DejaVuSans-72"/>
      <use x="407.455078" xlink:href="#DejaVuSans-67"/>
      <use x="470.931641" xlink:href="#DejaVuSans-65"/>
      <use x="532.455078" xlink:href="#DejaVuSans-74"/>
      <use x="571.664062" xlink:href="#DejaVuSans-20"/>
      <use x="603.451172" xlink:href="#DejaVuSans-3d"/>
      <use x="687.240234" xlink:href="#DejaVuSans-20"/>
      <use x="719.027344" xlink:href="#DejaVuSans-32"/>
      <use x="782.650391" xlink:href="#DejaVuSans-25"/>
      <use x="877.669922" xlink:href="#DejaVuSans-25"/>
     </g>
    </g>
    <g id="line2d_27">
     <path d="M 99 126.252813 
L 119 126.252813 
" style="fill:none;stroke:#d62728;stroke-linecap:square;stroke-width:1.5;"/>
    </g>
    <g id="line2d_28"/>
    <g id="text_18">
     <!-- LPM approximation, target = 2% -->
     <g transform="translate(127 129.752813)scale(0.1 -0.1)">
      <use xlink:href="#DejaVuSans-4c"/>
      <use x="55.712891" xlink:href="#DejaVuSans-50"/>
      <use x="116.015625" xlink:href="#DejaVuSans-4d"/>
      <use x="202.294922" xlink:href="#DejaVuSans-20"/>
      <use x="234.082031" xlink:href="#DejaVuSans-61"/>
      <use x="295.361328" xlink:href="#DejaVuSans-70"/>
      <use x="358.837891" xlink:href="#DejaVuSans-70"/>
      <use x="422.314453" xlink:href="#DejaVuSans-72"/>
      <use x="463.396484" xlink:href="#DejaVuSans-6f"/>
      <use x="524.53125" xlink:href="#DejaVuSans-78"/>
      <use x="583.710938" xlink:href="#DejaVuSans-69"/>
      <use x="611.494141" xlink:href="#DejaVuSans-6d"/>
      <use x="708.90625" xlink:href="#DejaVuSans-61"/>
      <use x="770.185547" xlink:href="#DejaVuSans-74"/>
      <use x="809.394531" xlink:href="#DejaVuSans-69"/>
      <use x="837.177734" xlink:href="#DejaVuSans-6f"/>
      <use x="898.359375" xlink:href="#DejaVuSans-6e"/>
      <use x="961.738281" xlink:href="#DejaVuSans-2c"/>
      <use x="993.525391" xlink:href="#DejaVuSans-20"/>
      <use x="1025.3125" xlink:href="#DejaVuSans-74"/>
      <use x="1064.521484" xlink:href="#DejaVuSans-61"/>
      <use x="1125.800781" xlink:href="#DejaVuSans-72"/>
      <use x="1166.898438" xlink:href="#DejaVuSans-67"/>
      <use x="1230.375" xlink:href="#DejaVuSans-65"/>
      <use x="1291.898438" xlink:href="#DejaVuSans-74"/>
      <use x="1331.107422" xlink:href="#DejaVuSans-20"/>
      <use x="1362.894531" xlink:href="#DejaVuSans-3d"/>
      <use x="1446.683594" xlink:href="#DejaVuSans-20"/>
      <use x="1478.470703" xlink:href="#DejaVuSans-32"/>
      <use x="1542.09375" xlink:href="#DejaVuSans-25"/>
     </g>
    </g>
    <g id="line2d_29">
     <path d="M 99 140.930938 
L 119 140.930938 
" style="fill:none;stroke:#9467bd;stroke-linecap:square;stroke-width:1.5;"/>
    </g>
    <g id="line2d_30"/>
    <g id="text_19">
     <!-- LPM, target = 0%% -->
     <g transform="translate(127 144.430938)scale(0.1 -0.1)">
      <use xlink:href="#DejaVuSans-4c"/>
      <use x="55.712891" xlink:href="#DejaVuSans-50"/>
      <use x="116.015625" xlink:href="#DejaVuSans-4d"/>
      <use x="202.294922" xlink:href="#DejaVuSans-2c"/>
      <use x="234.082031" xlink:href="#DejaVuSans-20"/>
      <use x="265.869141" xlink:href="#DejaVuSans-74"/>
      <use x="305.078125" xlink:href="#DejaVuSans-61"/>
      <use x="366.357422" xlink:href="#DejaVuSans-72"/>
      <use x="407.455078" xlink:href="#DejaVuSans-67"/>
      <use x="470.931641" xlink:href="#DejaVuSans-65"/>
      <use x="532.455078" xlink:href="#DejaVuSans-74"/>
      <use x="571.664062" xlink:href="#DejaVuSans-20"/>
      <use x="603.451172" xlink:href="#DejaVuSans-3d"/>
      <use x="687.240234" xlink:href="#DejaVuSans-20"/>
      <use x="719.027344" xlink:href="#DejaVuSans-30"/>
      <use x="782.650391" xlink:href="#DejaVuSans-25"/>
      <use x="877.669922" xlink:href="#DejaVuSans-25"/>
     </g>
    </g>
    <g id="line2d_31">
     <path d="M 99 155.609063 
L 119 155.609063 
" style="fill:none;stroke:#8c564b;stroke-linecap:square;stroke-width:1.5;"/>
    </g>
    <g id="line2d_32"/>
    <g id="text_20">
     <!-- LPM approximation, target = 0% -->
     <g transform="translate(127 159.109063)scale(0.1 -0.1)">
      <use xlink:href="#DejaVuSans-4c"/>
      <use x="55.712891" xlink:href="#DejaVuSans-50"/>
      <use x="116.015625" xlink:href="#DejaVuSans-4d"/>
      <use x="202.294922" xlink:href="#DejaVuSans-20"/>
      <use x="234.082031" xlink:href="#DejaVuSans-61"/>
      <use x="295.361328" xlink:href="#DejaVuSans-70"/>
      <use x="358.837891" xlink:href="#DejaVuSans-70"/>
      <use x="422.314453" xlink:href="#DejaVuSans-72"/>
      <use x="463.396484" xlink:href="#DejaVuSans-6f"/>
      <use x="524.53125" xlink:href="#DejaVuSans-78"/>
      <use x="583.710938" xlink:href="#DejaVuSans-69"/>
      <use x="611.494141" xlink:href="#DejaVuSans-6d"/>
      <use x="708.90625" xlink:href="#DejaVuSans-61"/>
      <use x="770.185547" xlink:href="#DejaVuSans-74"/>
      <use x="809.394531" xlink:href="#DejaVuSans-69"/>
      <use x="837.177734" xlink:href="#DejaVuSans-6f"/>
      <use x="898.359375" xlink:href="#DejaVuSans-6e"/>
      <use x="961.738281" xlink:href="#DejaVuSans-2c"/>
      <use x="993.525391" xlink:href="#DejaVuSans-20"/>
      <use x="1025.3125" xlink:href="#DejaVuSans-74"/>
      <use x="1064.521484" xlink:href="#DejaVuSans-61"/>
      <use x="1125.800781" xlink:href="#DejaVuSans-72"/>
      <use x="1166.898438" xlink:href="#DejaVuSans-67"/>
      <use x="1230.375" xlink:href="#DejaVuSans-65"/>
      <use x="1291.898438" xlink:href="#DejaVuSans-74"/>
      <use x="1331.107422" xlink:href="#DejaVuSans-20"/>
      <use x="1362.894531" xlink:href="#DejaVuSans-3d"/>
      <use x="1446.683594" xlink:href="#DejaVuSans-20"/>
      <use x="1478.470703" xlink:href="#DejaVuSans-30"/>
      <use x="1542.09375" xlink:href="#DejaVuSans-25"/>
     </g>
    </g>
   </g>
  </g>
 </g>
 <defs>
  <clipPath id="p0cfee336f1">
   <rect height="434.88" width="558" x="90" y="69.12"/>
  </clipPath>
 </defs>
</svg>
