<?xml version="1.0" encoding="utf-8" standalone="no"?>
<!DOCTYPE svg PUBLIC "-//W3C//DTD SVG 1.1//EN"
  "http://www.w3.org/Graphics/SVG/1.1/DTD/svg11.dtd">
<!-- Created with matplotlib (http://matplotlib.org/) -->
<svg height="720pt" version="1.1" viewBox="0 0 720 720" width="720pt" xmlns="http://www.w3.org/2000/svg" xmlns:xlink="http://www.w3.org/1999/xlink">
 <defs>
  <style type="text/css">
*{stroke-linecap:butt;stroke-linejoin:round;}
  </style>
 </defs>
 <g id="figure_1">
  <g id="patch_1">
   <path d="M 0 720 
L 720 720 
L 720 0 
L 0 0 
z
" style="fill:#ffffff;"/>
  </g>
  <g id="axes_1">
   <g id="patch_2">
    <path d="M 90 630 
L 648 630 
L 648 86.4 
L 90 86.4 
z
" style="fill:#ffffff;"/>
   </g>
   <g id="matplotlib.axis_1">
    <g id="xtick_1">
     <g id="line2d_1">
      <defs>
       <path d="M 0 0 
L 0 3.5 
" id="mc34bfbbec0" style="stroke:#000000;stroke-width:0.8;"/>
      </defs>
      <g>
       <use style="stroke:#000000;stroke-width:0.8;" x="115.008358" xlink:href="#mc34bfbbec0" y="630"/>
      </g>
     </g>
     <g id="text_1">
      <!-- 1975 -->
      <defs>
       <path d="M 12.40625 8.296875 
L 28.515625 8.296875 
L 28.515625 63.921875 
L 10.984375 60.40625 
L 10.984375 69.390625 
L 28.421875 72.90625 
L 38.28125 72.90625 
L 38.28125 8.296875 
L 54.390625 8.296875 
L 54.390625 0 
L 12.40625 0 
z
" id="DejaVuSans-31"/>
       <path d="M 10.984375 1.515625 
L 10.984375 10.5 
Q 14.703125 8.734375 18.5 7.8125 
Q 22.3125 6.890625 25.984375 6.890625 
Q 35.75 6.890625 40.890625 13.453125 
Q 46.046875 20.015625 46.78125 33.40625 
Q 43.953125 29.203125 39.59375 26.953125 
Q 35.25 24.703125 29.984375 24.703125 
Q 19.046875 24.703125 12.671875 31.3125 
Q 6.296875 37.9375 6.296875 49.421875 
Q 6.296875 60.640625 12.9375 67.421875 
Q 19.578125 74.21875 30.609375 74.21875 
Q 43.265625 74.21875 49.921875 64.515625 
Q 56.59375 54.828125 56.59375 36.375 
Q 56.59375 19.140625 48.40625 8.859375 
Q 40.234375 -1.421875 26.421875 -1.421875 
Q 22.703125 -1.421875 18.890625 -0.6875 
Q 15.09375 0.046875 10.984375 1.515625 
z
M 30.609375 32.421875 
Q 37.25 32.421875 41.125 36.953125 
Q 45.015625 41.5 45.015625 49.421875 
Q 45.015625 57.28125 41.125 61.84375 
Q 37.25 66.40625 30.609375 66.40625 
Q 23.96875 66.40625 20.09375 61.84375 
Q 16.21875 57.28125 16.21875 49.421875 
Q 16.21875 41.5 20.09375 36.953125 
Q 23.96875 32.421875 30.609375 32.421875 
z
" id="DejaVuSans-39"/>
       <path d="M 8.203125 72.90625 
L 55.078125 72.90625 
L 55.078125 68.703125 
L 28.609375 0 
L 18.3125 0 
L 43.21875 64.59375 
L 8.203125 64.59375 
z
" id="DejaVuSans-37"/>
       <path d="M 10.796875 72.90625 
L 49.515625 72.90625 
L 49.515625 64.59375 
L 19.828125 64.59375 
L 19.828125 46.734375 
Q 21.96875 47.46875 24.109375 47.828125 
Q 26.265625 48.1875 28.421875 48.1875 
Q 40.625 48.1875 47.75 41.5 
Q 54.890625 34.8125 54.890625 23.390625 
Q 54.890625 11.625 47.5625 5.09375 
Q 40.234375 -1.421875 26.90625 -1.421875 
Q 22.3125 -1.421875 17.546875 -0.640625 
Q 12.796875 0.140625 7.71875 1.703125 
L 7.71875 11.625 
Q 12.109375 9.234375 16.796875 8.0625 
Q 21.484375 6.890625 26.703125 6.890625 
Q 35.15625 6.890625 40.078125 11.328125 
Q 45.015625 15.765625 45.015625 23.390625 
Q 45.015625 31 40.078125 35.4375 
Q 35.15625 39.890625 26.703125 39.890625 
Q 22.75 39.890625 18.8125 39.015625 
Q 14.890625 38.140625 10.796875 36.28125 
z
" id="DejaVuSans-35"/>
      </defs>
      <g transform="translate(102.283358 644.598438)scale(0.1 -0.1)">
       <use xlink:href="#DejaVuSans-31"/>
       <use x="63.623047" xlink:href="#DejaVuSans-39"/>
       <use x="127.246094" xlink:href="#DejaVuSans-37"/>
       <use x="190.869141" xlink:href="#DejaVuSans-35"/>
      </g>
     </g>
    </g>
    <g id="xtick_2">
     <g id="line2d_2">
      <g>
       <use style="stroke:#000000;stroke-width:0.8;" x="173.984546" xlink:href="#mc34bfbbec0" y="630"/>
      </g>
     </g>
     <g id="text_2">
      <!-- 1980 -->
      <defs>
       <path d="M 31.78125 34.625 
Q 24.75 34.625 20.71875 30.859375 
Q 16.703125 27.09375 16.703125 20.515625 
Q 16.703125 13.921875 20.71875 10.15625 
Q 24.75 6.390625 31.78125 6.390625 
Q 38.8125 6.390625 42.859375 10.171875 
Q 46.921875 13.96875 46.921875 20.515625 
Q 46.921875 27.09375 42.890625 30.859375 
Q 38.875 34.625 31.78125 34.625 
z
M 21.921875 38.8125 
Q 15.578125 40.375 12.03125 44.71875 
Q 8.5 49.078125 8.5 55.328125 
Q 8.5 64.0625 14.71875 69.140625 
Q 20.953125 74.21875 31.78125 74.21875 
Q 42.671875 74.21875 48.875 69.140625 
Q 55.078125 64.0625 55.078125 55.328125 
Q 55.078125 49.078125 51.53125 44.71875 
Q 48 40.375 41.703125 38.8125 
Q 48.828125 37.15625 52.796875 32.3125 
Q 56.78125 27.484375 56.78125 20.515625 
Q 56.78125 9.90625 50.3125 4.234375 
Q 43.84375 -1.421875 31.78125 -1.421875 
Q 19.734375 -1.421875 13.25 4.234375 
Q 6.78125 9.90625 6.78125 20.515625 
Q 6.78125 27.484375 10.78125 32.3125 
Q 14.796875 37.15625 21.921875 38.8125 
z
M 18.3125 54.390625 
Q 18.3125 48.734375 21.84375 45.5625 
Q 25.390625 42.390625 31.78125 42.390625 
Q 38.140625 42.390625 41.71875 45.5625 
Q 45.3125 48.734375 45.3125 54.390625 
Q 45.3125 60.0625 41.71875 63.234375 
Q 38.140625 66.40625 31.78125 66.40625 
Q 25.390625 66.40625 21.84375 63.234375 
Q 18.3125 60.0625 18.3125 54.390625 
z
" id="DejaVuSans-38"/>
       <path d="M 31.78125 66.40625 
Q 24.171875 66.40625 20.328125 58.90625 
Q 16.5 51.421875 16.5 36.375 
Q 16.5 21.390625 20.328125 13.890625 
Q 24.171875 6.390625 31.78125 6.390625 
Q 39.453125 6.390625 43.28125 13.890625 
Q 47.125 21.390625 47.125 36.375 
Q 47.125 51.421875 43.28125 58.90625 
Q 39.453125 66.40625 31.78125 66.40625 
z
M 31.78125 74.21875 
Q 44.046875 74.21875 50.515625 64.515625 
Q 56.984375 54.828125 56.984375 36.375 
Q 56.984375 17.96875 50.515625 8.265625 
Q 44.046875 -1.421875 31.78125 -1.421875 
Q 19.53125 -1.421875 13.0625 8.265625 
Q 6.59375 17.96875 6.59375 36.375 
Q 6.59375 54.828125 13.0625 64.515625 
Q 19.53125 74.21875 31.78125 74.21875 
z
" id="DejaVuSans-30"/>
      </defs>
      <g transform="translate(161.259546 644.598438)scale(0.1 -0.1)">
       <use xlink:href="#DejaVuSans-31"/>
       <use x="63.623047" xlink:href="#DejaVuSans-39"/>
       <use x="127.246094" xlink:href="#DejaVuSans-38"/>
       <use x="190.869141" xlink:href="#DejaVuSans-30"/>
      </g>
     </g>
    </g>
    <g id="xtick_3">
     <g id="line2d_3">
      <g>
       <use style="stroke:#000000;stroke-width:0.8;" x="232.993031" xlink:href="#mc34bfbbec0" y="630"/>
      </g>
     </g>
     <g id="text_3">
      <!-- 1985 -->
      <g transform="translate(220.268031 644.598438)scale(0.1 -0.1)">
       <use xlink:href="#DejaVuSans-31"/>
       <use x="63.623047" xlink:href="#DejaVuSans-39"/>
       <use x="127.246094" xlink:href="#DejaVuSans-38"/>
       <use x="190.869141" xlink:href="#DejaVuSans-35"/>
      </g>
     </g>
    </g>
    <g id="xtick_4">
     <g id="line2d_4">
      <g>
       <use style="stroke:#000000;stroke-width:0.8;" x="291.969218" xlink:href="#mc34bfbbec0" y="630"/>
      </g>
     </g>
     <g id="text_4">
      <!-- 1990 -->
      <g transform="translate(279.244218 644.598438)scale(0.1 -0.1)">
       <use xlink:href="#DejaVuSans-31"/>
       <use x="63.623047" xlink:href="#DejaVuSans-39"/>
       <use x="127.246094" xlink:href="#DejaVuSans-39"/>
       <use x="190.869141" xlink:href="#DejaVuSans-30"/>
      </g>
     </g>
    </g>
    <g id="xtick_5">
     <g id="line2d_5">
      <g>
       <use style="stroke:#000000;stroke-width:0.8;" x="350.945406" xlink:href="#mc34bfbbec0" y="630"/>
      </g>
     </g>
     <g id="text_5">
      <!-- 1995 -->
      <g transform="translate(338.220406 644.598438)scale(0.1 -0.1)">
       <use xlink:href="#DejaVuSans-31"/>
       <use x="63.623047" xlink:href="#DejaVuSans-39"/>
       <use x="127.246094" xlink:href="#DejaVuSans-39"/>
       <use x="190.869141" xlink:href="#DejaVuSans-35"/>
      </g>
     </g>
    </g>
    <g id="xtick_6">
     <g id="line2d_6">
      <g>
       <use style="stroke:#000000;stroke-width:0.8;" x="409.921593" xlink:href="#mc34bfbbec0" y="630"/>
      </g>
     </g>
     <g id="text_6">
      <!-- 2000 -->
      <defs>
       <path d="M 19.1875 8.296875 
L 53.609375 8.296875 
L 53.609375 0 
L 7.328125 0 
L 7.328125 8.296875 
Q 12.9375 14.109375 22.625 23.890625 
Q 32.328125 33.6875 34.8125 36.53125 
Q 39.546875 41.84375 41.421875 45.53125 
Q 43.3125 49.21875 43.3125 52.78125 
Q 43.3125 58.59375 39.234375 62.25 
Q 35.15625 65.921875 28.609375 65.921875 
Q 23.96875 65.921875 18.8125 64.3125 
Q 13.671875 62.703125 7.8125 59.421875 
L 7.8125 69.390625 
Q 13.765625 71.78125 18.9375 73 
Q 24.125 74.21875 28.421875 74.21875 
Q 39.75 74.21875 46.484375 68.546875 
Q 53.21875 62.890625 53.21875 53.421875 
Q 53.21875 48.921875 51.53125 44.890625 
Q 49.859375 40.875 45.40625 35.40625 
Q 44.1875 33.984375 37.640625 27.21875 
Q 31.109375 20.453125 19.1875 8.296875 
z
" id="DejaVuSans-32"/>
      </defs>
      <g transform="translate(397.196593 644.598438)scale(0.1 -0.1)">
       <use xlink:href="#DejaVuSans-32"/>
       <use x="63.623047" xlink:href="#DejaVuSans-30"/>
       <use x="127.246094" xlink:href="#DejaVuSans-30"/>
       <use x="190.869141" xlink:href="#DejaVuSans-30"/>
      </g>
     </g>
    </g>
    <g id="xtick_7">
     <g id="line2d_7">
      <g>
       <use style="stroke:#000000;stroke-width:0.8;" x="468.930079" xlink:href="#mc34bfbbec0" y="630"/>
      </g>
     </g>
     <g id="text_7">
      <!-- 2005 -->
      <g transform="translate(456.205079 644.598438)scale(0.1 -0.1)">
       <use xlink:href="#DejaVuSans-32"/>
       <use x="63.623047" xlink:href="#DejaVuSans-30"/>
       <use x="127.246094" xlink:href="#DejaVuSans-30"/>
       <use x="190.869141" xlink:href="#DejaVuSans-35"/>
      </g>
     </g>
    </g>
    <g id="xtick_8">
     <g id="line2d_8">
      <g>
       <use style="stroke:#000000;stroke-width:0.8;" x="527.906266" xlink:href="#mc34bfbbec0" y="630"/>
      </g>
     </g>
     <g id="text_8">
      <!-- 2010 -->
      <g transform="translate(515.181266 644.598438)scale(0.1 -0.1)">
       <use xlink:href="#DejaVuSans-32"/>
       <use x="63.623047" xlink:href="#DejaVuSans-30"/>
       <use x="127.246094" xlink:href="#DejaVuSans-31"/>
       <use x="190.869141" xlink:href="#DejaVuSans-30"/>
      </g>
     </g>
    </g>
    <g id="xtick_9">
     <g id="line2d_9">
      <g>
       <use style="stroke:#000000;stroke-width:0.8;" x="586.882454" xlink:href="#mc34bfbbec0" y="630"/>
      </g>
     </g>
     <g id="text_9">
      <!-- 2015 -->
      <g transform="translate(574.157454 644.598438)scale(0.1 -0.1)">
       <use xlink:href="#DejaVuSans-32"/>
       <use x="63.623047" xlink:href="#DejaVuSans-30"/>
       <use x="127.246094" xlink:href="#DejaVuSans-31"/>
       <use x="190.869141" xlink:href="#DejaVuSans-35"/>
      </g>
     </g>
    </g>
    <g id="xtick_10">
     <g id="line2d_10">
      <g>
       <use style="stroke:#000000;stroke-width:0.8;" x="645.858641" xlink:href="#mc34bfbbec0" y="630"/>
      </g>
     </g>
     <g id="text_10">
      <!-- 2020 -->
      <g transform="translate(633.133641 644.598438)scale(0.1 -0.1)">
       <use xlink:href="#DejaVuSans-32"/>
       <use x="63.623047" xlink:href="#DejaVuSans-30"/>
       <use x="127.246094" xlink:href="#DejaVuSans-32"/>
       <use x="190.869141" xlink:href="#DejaVuSans-30"/>
      </g>
     </g>
    </g>
   </g>
   <g id="matplotlib.axis_2">
    <g id="ytick_1">
     <g id="line2d_11">
      <defs>
       <path d="M 0 0 
L -3.5 0 
" id="m32bdfccbbd" style="stroke:#000000;stroke-width:0.8;"/>
      </defs>
      <g>
       <use style="stroke:#000000;stroke-width:0.8;" x="90" xlink:href="#m32bdfccbbd" y="613.754441"/>
      </g>
     </g>
     <g id="text_11">
      <!-- −200 -->
      <defs>
       <path d="M 10.59375 35.5 
L 73.1875 35.5 
L 73.1875 27.203125 
L 10.59375 27.203125 
z
" id="DejaVuSans-2212"/>
      </defs>
      <g transform="translate(55.532812 617.553659)scale(0.1 -0.1)">
       <use xlink:href="#DejaVuSans-2212"/>
       <use x="83.789062" xlink:href="#DejaVuSans-32"/>
       <use x="147.412109" xlink:href="#DejaVuSans-30"/>
       <use x="211.035156" xlink:href="#DejaVuSans-30"/>
      </g>
     </g>
    </g>
    <g id="ytick_2">
     <g id="line2d_12">
      <g>
       <use style="stroke:#000000;stroke-width:0.8;" x="90" xlink:href="#m32bdfccbbd" y="501.06871"/>
      </g>
     </g>
     <g id="text_12">
      <!-- −100 -->
      <g transform="translate(55.532812 504.867928)scale(0.1 -0.1)">
       <use xlink:href="#DejaVuSans-2212"/>
       <use x="83.789062" xlink:href="#DejaVuSans-31"/>
       <use x="147.412109" xlink:href="#DejaVuSans-30"/>
       <use x="211.035156" xlink:href="#DejaVuSans-30"/>
      </g>
     </g>
    </g>
    <g id="ytick_3">
     <g id="line2d_13">
      <g>
       <use style="stroke:#000000;stroke-width:0.8;" x="90" xlink:href="#m32bdfccbbd" y="388.382979"/>
      </g>
     </g>
     <g id="text_13">
      <!-- 0 -->
      <g transform="translate(76.6375 392.182197)scale(0.1 -0.1)">
       <use xlink:href="#DejaVuSans-30"/>
      </g>
     </g>
    </g>
    <g id="ytick_4">
     <g id="line2d_14">
      <g>
       <use style="stroke:#000000;stroke-width:0.8;" x="90" xlink:href="#m32bdfccbbd" y="275.697247"/>
      </g>
     </g>
     <g id="text_14">
      <!-- 100 -->
      <g transform="translate(63.9125 279.496466)scale(0.1 -0.1)">
       <use xlink:href="#DejaVuSans-31"/>
       <use x="63.623047" xlink:href="#DejaVuSans-30"/>
       <use x="127.246094" xlink:href="#DejaVuSans-30"/>
      </g>
     </g>
    </g>
    <g id="ytick_5">
     <g id="line2d_15">
      <g>
       <use style="stroke:#000000;stroke-width:0.8;" x="90" xlink:href="#m32bdfccbbd" y="163.011516"/>
      </g>
     </g>
     <g id="text_15">
      <!-- 200 -->
      <g transform="translate(63.9125 166.810735)scale(0.1 -0.1)">
       <use xlink:href="#DejaVuSans-32"/>
       <use x="63.623047" xlink:href="#DejaVuSans-30"/>
       <use x="127.246094" xlink:href="#DejaVuSans-30"/>
      </g>
     </g>
    </g>
   </g>
   <g id="line2d_16">
    <path clip-path="url(#p452537a93a)" d="M 115.363636 387.971191 
L 118.270458 387.352308 
L 119.239399 386.249237 
L 120.240638 384.824079 
L 121.209578 384.955864 
L 122.210817 386.844288 
L 123.212056 387.21047 
L 124.180996 387.061708 
L 125.182235 386.708068 
L 126.151176 386.858183 
L 127.152414 386.186698 
L 128.153653 386.888901 
L 129.090296 386.871859 
L 130.091534 386.987431 
L 131.060475 386.87626 
L 133.030654 387.22073 
L 134.031893 387.108076 
L 135.033132 385.795249 
L 136.002072 386.373546 
L 137.003311 383.430115 
L 137.972251 381.751906 
L 138.97349 386.565047 
L 139.974729 387.221991 
L 140.879073 387.559792 
L 145.820671 387.851414 
L 146.821909 387.968483 
L 149.761029 387.922553 
L 150.762268 388.072684 
L 154.638031 387.849382 
L 155.639269 387.648096 
L 157.609449 387.779604 
L 158.610687 387.750287 
L 160.580867 387.861628 
L 161.549807 387.52678 
L 162.551046 387.38637 
L 163.552285 388.010581 
L 165.457868 387.692166 
L 168.396988 387.837372 
L 169.398227 387.553957 
L 170.399465 387.393223 
L 171.368406 387.600527 
L 172.369644 388.066153 
L 174.339824 387.983851 
L 176.277705 388.190089 
L 177.278944 388.199496 
L 178.247884 388.068999 
L 179.249123 387.315227 
L 180.218064 388.187239 
L 184.19072 388.470679 
L 185.159661 388.427689 
L 189.067722 388.57963 
L 190.036662 388.521735 
L 191.037901 388.573645 
L 193.00808 388.438324 
L 197.949678 388.513022 
L 199.855261 388.546619 
L 203.79562 388.528065 
L 207.768276 388.733969 
L 208.737217 389.276588 
L 209.738455 389.415392 
L 210.739694 389.08827 
L 211.644039 389.713384 
L 212.645277 391.053991 
L 213.614218 401.096035 
L 214.615457 389.608748 
L 215.584397 390.947443 
L 216.585636 390.25419 
L 217.586875 390.50771 
L 218.555815 392.813338 
L 219.557054 393.112286 
L 220.525995 384.62324 
L 221.527233 385.460485 
L 222.528472 386.561907 
L 223.465115 383.216027 
L 224.466353 386.132491 
L 225.435294 383.777996 
L 226.436533 359.158056 
L 227.405473 392.104879 
L 228.406712 390.953015 
L 229.407951 390.892227 
L 230.376891 384.534936 
L 231.37813 387.921458 
L 232.347071 387.911284 
L 233.348309 388.028939 
L 234.349548 387.819405 
L 235.253893 388.0203 
L 238.225311 388.132901 
L 240.19549 388.126155 
L 250.014088 388.372996 
L 251.984268 388.258053 
L 255.924626 388.289643 
L 259.832687 388.293562 
L 265.743225 388.32076 
L 266.744464 388.081073 
L 268.714643 388.067363 
L 269.715882 388.31543 
L 271.653763 388.204844 
L 272.622704 388.073536 
L 273.623942 388.210036 
L 278.56554 387.682028 
L 280.535719 387.840644 
L 281.536958 388.049902 
L 283.442541 387.916722 
L 287.382899 388.104442 
L 290.354317 388.039344 
L 291.323258 388.095746 
L 292.324497 388.028603 
L 293.325735 388.160569 
L 295.231319 387.868882 
L 297.201498 387.991469 
L 298.170439 388.319327 
L 299.171677 388.375856 
L 300.172916 388.65996 
L 301.141857 389.868854 
L 302.143095 389.571948 
L 303.112036 389.832128 
L 305.114513 389.351024 
L 307.020097 391.838314 
L 307.989037 397.60371 
L 308.990276 395.134098 
L 309.959217 411.592353 
L 310.960455 361.088695 
L 311.961694 409.369118 
L 312.930634 418.5919 
L 313.931873 402.074089 
L 314.900814 400.287279 
L 315.902052 394.283076 
L 316.903291 369.623058 
L 317.839934 385.624828 
L 318.841172 386.279504 
L 319.810113 386.302309 
L 320.811352 386.87739 
L 321.780292 386.76038 
L 322.781531 387.001672 
L 323.78277 385.848448 
L 324.75171 385.708766 
L 325.752949 391.217624 
L 326.72189 392.934395 
L 327.723128 392.630017 
L 328.724367 390.67195 
L 329.628712 395.870699 
L 330.62995 376.491129 
L 331.598891 391.638903 
L 332.60013 392.961549 
L 333.56907 392.978719 
L 334.570309 391.101283 
L 335.571548 390.392179 
L 336.540488 391.180307 
L 337.541727 390.564795 
L 338.510668 390.448302 
L 339.511906 390.675665 
L 340.513145 390.325604 
L 341.41749 390.717411 
L 342.418728 390.069838 
L 343.387669 386.534817 
L 344.388908 387.081399 
L 345.357848 387.308096 
L 347.360326 386.949612 
L 348.329266 386.766526 
L 349.330505 387.145073 
L 350.299445 387.763831 
L 352.301923 387.876701 
L 353.206267 387.678791 
L 354.207506 386.946865 
L 356.177685 385.888504 
L 357.146626 388.947375 
L 359.149103 388.780908 
L 360.118044 388.618688 
L 362.088223 388.667188 
L 363.089462 388.686415 
L 364.090701 388.545413 
L 365.027343 388.614616 
L 366.028582 388.568785 
L 366.997523 388.394337 
L 367.998761 388.475278 
L 372.940359 388.396239 
L 375.911777 388.399762 
L 381.757719 388.337517 
L 382.758957 388.152904 
L 383.727898 388.198479 
L 385.698077 388.058375 
L 387.700555 388.054721 
L 393.546496 388.243943 
L 394.547735 388.542946 
L 396.517914 388.231708 
L 398.488094 388.175396 
L 399.489332 389.354859 
L 400.393677 388.879404 
L 401.394916 389.233176 
L 402.363856 389.345234 
L 404.334036 389.086828 
L 405.335274 389.339463 
L 408.306692 389.426489 
L 409.275633 388.91056 
L 410.276872 389.559724 
L 411.27811 389.63595 
L 412.214753 389.353831 
L 414.184932 389.570174 
L 415.186171 389.220347 
L 416.155112 389.266578 
L 417.15635 389.648337 
L 418.157589 389.783623 
L 419.12653 390.082967 
L 420.127768 389.419509 
L 421.096709 390.162491 
L 422.097948 390.652363 
L 423.099186 390.97171 
L 424.003531 396.894366 
L 425.004769 397.499122 
L 425.97371 392.777795 
L 426.974949 395.650151 
L 427.943889 369.02808 
L 428.945128 372.081549 
L 429.946367 386.88757 
L 430.915307 369.486557 
L 431.916546 433.613523 
L 432.885487 395.130925 
L 433.886725 396.382719 
L 434.887964 375.061599 
L 435.792309 385.989049 
L 436.793547 387.76895 
L 437.762488 389.044249 
L 438.763727 389.322301 
L 439.732667 388.907005 
L 443.705324 388.622981 
L 444.674265 388.846373 
L 445.675503 388.524008 
L 446.676742 388.855151 
L 447.581087 388.894989 
L 448.582325 388.461409 
L 449.551266 388.510259 
L 450.552505 389.010107 
L 452.522684 387.555751 
L 453.523923 396.139637 
L 454.492863 389.661943 
L 455.494102 385.588665 
L 456.463042 385.407621 
L 457.464281 383.275211 
L 458.46552 383.460961 
L 459.402162 385.670105 
L 460.403401 386.173059 
L 461.372342 387.634956 
L 462.37358 387.990562 
L 463.342521 388.555571 
L 465.344998 389.029637 
L 466.313939 390.729551 
L 467.315178 395.278498 
L 468.284118 392.999959 
L 469.285357 400.371429 
L 470.286596 384.972986 
L 471.19094 384.183229 
L 472.192179 380.174973 
L 473.16112 380.145756 
L 474.162358 380.937444 
L 475.131299 370.795103 
L 476.132538 381.5357 
L 477.133776 386.250525 
L 478.102717 386.234883 
L 479.103956 387.778958 
L 480.072896 387.493284 
L 481.074135 388.379631 
L 482.075374 388.301216 
L 482.979718 387.892353 
L 483.980957 388.331193 
L 484.949898 388.081148 
L 485.951136 387.614695 
L 486.920077 387.762003 
L 487.921316 387.70945 
L 488.922554 387.194472 
L 491.861674 387.258797 
L 493.864152 387.141952 
L 494.768496 387.468979 
L 496.738675 387.592381 
L 497.739914 388.02916 
L 498.708855 388.32966 
L 499.710093 388.257405 
L 500.711332 388.349317 
L 501.680273 388.175019 
L 502.681511 388.455085 
L 504.651691 388.710233 
L 505.652929 390.047912 
L 507.590811 389.421157 
L 508.559751 389.569572 
L 509.56099 390.163954 
L 510.529931 389.917455 
L 511.531169 391.68068 
L 512.532408 391.097668 
L 513.501349 458.855682 
L 514.502587 425.459221 
L 515.471528 425.909514 
L 516.472767 433.154381 
L 517.474005 555.256734 
L 518.37835 413.104107 
L 519.379589 396.52159 
L 520.348529 391.547088 
L 521.349768 390.941654 
L 522.318709 391.100499 
L 523.319947 390.408869 
L 524.321186 390.182741 
L 525.290127 390.124564 
L 526.291365 390.430315 
L 527.260306 390.850471 
L 529.262783 391.146721 
L 530.167128 391.125482 
L 531.168366 391.585425 
L 532.137307 391.536747 
L 534.107486 391.877566 
L 535.108725 392.071045 
L 536.109964 391.913579 
L 537.078904 391.512418 
L 538.080143 392.133745 
L 540.050322 392.530241 
L 541.051561 392.398817 
L 541.955906 392.595978 
L 542.957144 392.355964 
L 544.927324 392.36676 
L 545.896264 392.789514 
L 546.897503 394.354251 
L 547.898742 393.108676 
L 548.867682 392.92368 
L 549.868921 393.715085 
L 550.837862 394.662898 
L 551.8391 394.229944 
L 552.840339 397.715791 
L 553.776982 399.733618 
L 554.77822 401.455584 
L 555.747161 425.566135 
L 556.7484 411.966892 
L 557.71734 422.777581 
L 558.718579 398.102935 
L 559.719818 399.240929 
L 560.688758 398.5625 
L 561.689997 395.627265 
L 562.658938 397.373804 
L 563.660176 394.754218 
L 564.661415 393.577898 
L 565.565759 393.467742 
L 566.566998 395.398279 
L 567.535939 395.9859 
L 568.537177 399.906156 
L 569.506118 394.546835 
L 570.507357 394.367281 
L 571.508595 394.681836 
L 572.477536 389.183476 
L 576.450193 389.007347 
L 577.354537 388.644104 
L 578.355776 388.709276 
L 579.324717 388.971353 
L 583.297373 388.755856 
L 585.267553 388.822944 
L 587.237732 388.978986 
L 589.143315 389.209084 
L 590.144554 389.160001 
L 591.113495 388.996825 
L 592.114733 388.700473 
L 593.083674 388.816204 
L 598.025271 388.783262 
L 599.02651 389.124176 
L 600.027749 389.847234 
L 600.964391 389.41608 
L 601.96563 389.536128 
L 602.93457 389.487472 
L 603.935809 389.059693 
L 604.90475 388.80987 
L 606.907227 388.790087 
L 607.876168 388.947255 
L 608.877406 388.993875 
L 610.847586 388.816946 
L 613.754408 388.817225 
L 614.723348 388.823035 
L 615.724587 388.702665 
L 620.666184 388.63023 
L 621.635125 388.596111 
L 622.636364 388.782848 
L 622.636364 388.782848 
" style="fill:none;stroke:#1f77b4;stroke-linecap:square;stroke-width:1.5;"/>
   </g>
   <g id="line2d_17">
    <path clip-path="url(#p452537a93a)" d="M 115.363636 387.619445 
L 116.364875 387.522532 
L 118.270458 387.601222 
L 119.239399 386.838249 
L 120.240638 386.48983 
L 122.210817 387.518134 
L 123.212056 387.704405 
L 127.152414 387.882465 
L 129.090296 387.618512 
L 130.091534 387.823822 
L 132.061714 387.770498 
L 133.030654 387.698281 
L 134.031893 387.431846 
L 135.033132 387.566327 
L 136.002072 387.1072 
L 137.003311 387.717549 
L 137.972251 387.749982 
L 138.97349 387.961889 
L 139.974729 387.423323 
L 142.849253 388.158673 
L 144.819432 388.023634 
L 145.820671 387.998513 
L 147.79085 388.1832 
L 148.792089 388.159731 
L 151.763507 388.355003 
L 152.667851 388.335765 
L 153.66909 388.023372 
L 154.638031 388.127953 
L 155.639269 388.47145 
L 156.60821 388.506198 
L 158.610687 388.876748 
L 159.579628 389.123867 
L 160.580867 388.642568 
L 161.549807 388.828037 
L 163.552285 388.213621 
L 164.456629 388.522983 
L 166.426809 388.06969 
L 167.428047 388.161905 
L 168.396988 388.01133 
L 170.399465 387.436171 
L 171.368406 387.495577 
L 172.369644 387.822856 
L 174.339824 387.205631 
L 175.341062 387.492195 
L 176.277705 387.585704 
L 177.278944 387.492458 
L 178.247884 387.123461 
L 179.249123 384.737035 
L 180.218064 386.797797 
L 181.219302 385.598226 
L 182.220541 386.451783 
L 183.189482 386.728933 
L 184.19072 387.290798 
L 186.1609 387.631673 
L 187.162138 387.69568 
L 189.067722 387.285099 
L 190.036662 387.51257 
L 191.037901 387.362661 
L 194.97826 387.464589 
L 195.979498 386.902875 
L 196.948439 387.031621 
L 198.950916 387.54983 
L 199.855261 387.602759 
L 201.82544 387.210063 
L 203.79562 387.397564 
L 205.798097 387.060642 
L 206.767037 386.494314 
L 207.768276 386.230851 
L 208.737217 385.0406 
L 209.738455 384.154628 
L 210.739694 385.532892 
L 211.644039 384.518126 
L 212.645277 382.286213 
L 213.614218 362.601498 
L 214.615457 384.912686 
L 215.584397 383.092096 
L 216.585636 383.744247 
L 217.586875 382.226348 
L 218.555815 372.745989 
L 219.557054 377.995223 
L 220.525995 396.279961 
L 221.527233 392.784179 
L 222.528472 389.826834 
L 223.465115 394.385154 
L 224.466353 390.042109 
L 225.435294 392.094882 
L 226.436533 402.819672 
L 227.405473 384.299257 
L 228.406712 384.575927 
L 229.407951 384.674261 
L 230.376891 389.825155 
L 231.37813 388.092879 
L 232.347071 388.173774 
L 233.348309 388.042313 
L 242.165669 387.882253 
L 243.166908 387.741955 
L 244.135848 387.894792 
L 247.04267 387.895798 
L 248.043909 387.91885 
L 249.01285 388.056359 
L 256.925865 388.192875 
L 258.831448 388.2712 
L 264.774284 388.273499 
L 269.715882 388.365209 
L 270.652524 388.533237 
L 271.653763 388.56443 
L 272.622704 388.706098 
L 273.623942 388.580547 
L 275.594122 388.505801 
L 276.59536 388.253399 
L 278.56554 388.501203 
L 279.53448 388.249626 
L 280.535719 388.247861 
L 282.441302 388.456399 
L 284.411481 388.333479 
L 285.41272 388.543963 
L 286.381661 388.372439 
L 287.382899 388.474501 
L 288.384138 388.441271 
L 289.353079 388.569051 
L 290.354317 388.580348 
L 291.323258 388.441377 
L 292.324497 388.114158 
L 293.325735 387.922048 
L 295.231319 387.736206 
L 296.200259 387.890387 
L 297.201498 388.414888 
L 298.170439 387.97125 
L 299.171677 387.660086 
L 300.172916 388.052707 
L 301.141857 389.101519 
L 302.143095 389.266292 
L 303.112036 387.768827 
L 304.113275 389.369454 
L 305.114513 389.421611 
L 306.018858 389.925603 
L 307.020097 391.471198 
L 307.989037 387.390356 
L 308.990276 388.060803 
L 309.959217 382.253517 
L 310.960455 385.878 
L 311.961694 388.321406 
L 312.930634 387.803008 
L 313.931873 388.436255 
L 314.900814 386.84585 
L 315.902052 387.767451 
L 316.903291 396.741274 
L 317.839934 390.330826 
L 318.841172 389.114333 
L 319.810113 388.786359 
L 320.811352 388.625857 
L 321.780292 388.623586 
L 322.781531 388.211706 
L 323.78277 388.292587 
L 324.75171 387.975089 
L 325.752949 388.181776 
L 326.72189 387.945932 
L 328.724367 387.915046 
L 329.628712 385.068749 
L 330.62995 388.642756 
L 331.598891 387.479482 
L 332.60013 387.343434 
L 333.56907 387.583342 
L 334.570309 388.078261 
L 335.571548 388.2184 
L 336.540488 387.746635 
L 337.541727 387.619987 
L 338.510668 387.826203 
L 339.511906 387.827016 
L 340.513145 388.920777 
L 341.41749 388.561047 
L 342.418728 388.481145 
L 343.387669 389.968129 
L 344.388908 389.168209 
L 345.357848 388.947861 
L 346.359087 388.962638 
L 347.360326 389.125373 
L 349.330505 388.909387 
L 352.301923 386.887248 
L 353.206267 386.787287 
L 354.207506 384.539085 
L 355.176447 383.495559 
L 356.177685 383.496717 
L 357.146626 393.006689 
L 358.147865 389.889905 
L 359.149103 388.681632 
L 360.118044 388.372804 
L 362.088223 388.586499 
L 363.089462 388.166909 
L 366.028582 388.275083 
L 366.997523 388.646583 
L 367.998761 388.564684 
L 368.967702 388.609355 
L 369.968941 388.378586 
L 370.970179 388.411524 
L 371.93912 388.294946 
L 375.911777 388.42868 
L 378.786301 388.232506 
L 379.787539 388.400088 
L 380.75648 388.425872 
L 381.757719 388.101566 
L 382.758957 388.233783 
L 383.727898 388.148189 
L 384.729137 388.240843 
L 385.698077 388.11984 
L 388.604899 388.365915 
L 389.606138 388.059722 
L 390.575078 387.90878 
L 391.576317 387.495298 
L 392.545258 387.577973 
L 393.546496 387.032285 
L 394.547735 385.980006 
L 395.516676 387.138892 
L 396.517914 387.21575 
L 397.486855 387.506429 
L 398.488094 386.731062 
L 399.489332 385.014104 
L 400.393677 387.232036 
L 401.394916 387.966322 
L 402.363856 388.106261 
L 403.365095 388.088518 
L 404.334036 388.210442 
L 405.335274 388.585781 
L 406.336513 388.772349 
L 409.275633 388.600053 
L 410.276872 387.860227 
L 411.27811 387.486515 
L 413.215992 387.65066 
L 415.186171 388.592887 
L 416.155112 388.89551 
L 417.15635 388.9949 
L 419.12653 390.150428 
L 420.127768 389.682972 
L 421.096709 391.070181 
L 422.097948 391.963635 
L 423.099186 391.404106 
L 424.003531 397.742507 
L 425.004769 401.688178 
L 425.97371 392.417659 
L 426.974949 396.001933 
L 428.945128 358.624113 
L 429.946367 384.655909 
L 430.915307 349.419545 
L 431.916546 464.50927 
L 432.885487 402.926542 
L 433.886725 401.045437 
L 434.887964 362.232405 
L 435.792309 399.290984 
L 436.793547 393.544446 
L 437.762488 380.131635 
L 438.763727 384.637604 
L 439.732667 386.738337 
L 440.733906 386.087271 
L 442.704085 386.283564 
L 443.705324 386.097406 
L 444.674265 386.167724 
L 445.675503 385.972149 
L 446.676742 386.898979 
L 447.581087 387.024419 
L 449.551266 386.927793 
L 450.552505 385.701719 
L 451.521445 386.312783 
L 452.522684 384.62241 
L 453.523923 605.290909 
L 454.492863 394.806721 
L 455.494102 383.8463 
L 456.463042 385.11057 
L 457.464281 385.072684 
L 458.46552 381.952431 
L 459.402162 386.952978 
L 460.403401 386.973486 
L 461.372342 386.570579 
L 462.37358 386.706271 
L 464.34376 386.380802 
L 465.344998 386.553039 
L 466.313939 385.715888 
L 467.315178 385.181014 
L 468.284118 386.556554 
L 469.285357 379.875518 
L 470.286596 390.534106 
L 471.19094 391.720547 
L 472.192179 393.713561 
L 473.16112 393.388983 
L 474.162358 392.34557 
L 475.131299 398.615323 
L 476.132538 392.470975 
L 477.133776 389.030038 
L 479.103956 389.600744 
L 480.072896 389.559888 
L 481.074135 389.051401 
L 482.979718 389.270625 
L 483.980957 388.484626 
L 485.951136 388.882867 
L 486.920077 389.423165 
L 487.921316 389.317996 
L 488.922554 389.078277 
L 490.892734 389.27353 
L 491.861674 389.183918 
L 492.862913 389.390873 
L 494.768496 389.273249 
L 495.769735 389.197105 
L 496.738675 389.301712 
L 497.739914 388.710898 
L 498.708855 388.878589 
L 499.710093 388.313808 
L 500.711332 388.116292 
L 501.680273 387.737984 
L 502.681511 386.935324 
L 503.650452 387.154267 
L 504.651691 385.96354 
L 505.652929 386.317099 
L 506.589572 386.475921 
L 507.590811 387.007415 
L 509.56099 386.434582 
L 510.529931 386.532296 
L 511.531169 385.998835 
L 512.532408 386.547716 
L 513.501349 338.747361 
L 514.502587 367.779892 
L 515.471528 372.879573 
L 516.472767 365.370759 
L 517.474005 301.416243 
L 518.37835 363.58683 
L 519.379589 371.57034 
L 520.348529 380.842599 
L 521.349768 383.15487 
L 522.318709 382.762542 
L 528.261545 385.613296 
L 529.262783 385.442338 
L 530.167128 385.155481 
L 532.137307 384.194308 
L 533.138546 384.03844 
L 534.107486 382.158338 
L 535.108725 382.150391 
L 536.109964 382.895499 
L 537.078904 383.39055 
L 538.080143 381.917667 
L 539.049084 381.435616 
L 540.050322 382.012703 
L 541.051561 381.822632 
L 541.955906 382.281843 
L 542.957144 382.214871 
L 543.926085 381.449891 
L 544.927324 381.577033 
L 545.896264 380.49442 
L 546.897503 378.901217 
L 547.898742 383.183871 
L 548.867682 379.639053 
L 549.868921 378.421396 
L 551.8391 379.200054 
L 552.840339 373.604207 
L 553.776982 372.916319 
L 554.77822 371.191562 
L 555.747161 330.508811 
L 556.7484 360.227491 
L 557.71734 342.091246 
L 558.718579 378.791023 
L 559.719818 374.623766 
L 560.688758 374.829924 
L 561.689997 380.248411 
L 562.658938 378.888532 
L 563.660176 381.643235 
L 564.661415 383.201409 
L 565.565759 382.518356 
L 566.566998 379.298869 
L 567.535939 378.317185 
L 568.537177 372.028067 
L 569.506118 382.126599 
L 570.507357 383.544414 
L 571.508595 382.422949 
L 572.477536 387.842826 
L 573.478775 388.008337 
L 574.447715 387.877913 
L 576.450193 388.185357 
L 577.354537 388.310472 
L 578.355776 388.302 
L 579.324717 388.172052 
L 585.267553 388.224759 
L 587.237732 387.969822 
L 588.238971 388.127978 
L 589.143315 387.83839 
L 590.144554 387.877368 
L 592.114733 388.86697 
L 595.086151 388.861731 
L 598.025271 389.444133 
L 600.027749 389.842683 
L 600.964391 389.5674 
L 603.935809 389.23627 
L 604.90475 389.182985 
L 605.905988 388.7565 
L 612.753169 388.595321 
L 614.723348 388.692425 
L 615.724587 388.428216 
L 619.664946 388.809886 
L 620.666184 388.608511 
L 622.636364 388.646628 
L 622.636364 388.646628 
" style="fill:none;stroke:#ff7f0e;stroke-linecap:square;stroke-width:1.5;"/>
   </g>
   <g id="line2d_18">
    <path clip-path="url(#p452537a93a)" d="M 115.363636 388.261539 
L 116.364875 388.373315 
L 117.26922 387.97712 
L 118.270458 388.008427 
L 119.239399 388.56213 
L 120.240638 386.941957 
L 121.209578 387.114891 
L 122.210817 388.119568 
L 123.212056 388.108758 
L 124.180996 388.222552 
L 126.151176 389.298424 
L 127.152414 389.393714 
L 128.153653 388.635075 
L 131.060475 388.293039 
L 132.061714 388.277578 
L 133.030654 388.669118 
L 134.031893 388.631673 
L 135.033132 387.907097 
L 136.002072 389.14515 
L 137.003311 388.566029 
L 137.972251 389.045794 
L 138.97349 388.870997 
L 139.974729 388.510826 
L 140.879073 388.496738 
L 141.880312 388.991201 
L 142.849253 388.710942 
L 143.850491 388.584144 
L 144.819432 388.724194 
L 146.821909 388.689863 
L 147.79085 388.786481 
L 148.792089 388.71909 
L 149.761029 388.883326 
L 150.762268 388.730583 
L 151.763507 388.894422 
L 152.667851 388.622214 
L 154.638031 388.709529 
L 155.639269 388.472067 
L 157.609449 388.410628 
L 158.610687 388.175383 
L 159.579628 387.664775 
L 160.580867 388.048815 
L 161.549807 387.824904 
L 162.551046 387.932321 
L 163.552285 388.263911 
L 166.426809 388.366787 
L 167.428047 388.159547 
L 168.396988 388.239844 
L 169.398227 387.886164 
L 170.399465 387.844144 
L 173.338585 388.235213 
L 174.339824 388.046104 
L 177.278944 388.252981 
L 178.247884 388.060263 
L 179.249123 387.36306 
L 180.218064 388.118884 
L 181.219302 387.879739 
L 182.220541 388.065052 
L 187.162138 388.200695 
L 196.948439 387.954107 
L 198.950916 387.975129 
L 204.796858 387.969277 
L 205.798097 387.792138 
L 206.767037 387.444139 
L 207.768276 387.682778 
L 208.737217 386.8061 
L 210.739694 386.984792 
L 211.644039 385.789223 
L 212.645277 382.435623 
L 213.614218 357.171911 
L 214.615457 384.829536 
L 215.584397 382.577902 
L 216.585636 384.819609 
L 217.586875 383.96401 
L 218.555815 377.699352 
L 219.557054 373.782627 
L 220.525995 395.287634 
L 221.527233 395.659923 
L 222.528472 395.085153 
L 223.465115 408.465166 
L 224.466353 396.564169 
L 225.435294 403.04323 
L 226.436533 497.170329 
L 227.405473 376.645858 
L 228.406712 379.11027 
L 229.407951 377.970268 
L 230.376891 405.9292 
L 231.37813 389.89647 
L 232.347071 389.198919 
L 233.348309 389.012003 
L 234.349548 389.28613 
L 235.253893 388.784603 
L 237.224072 388.547732 
L 239.194251 388.288681 
L 244.135848 388.056659 
L 247.04267 388.097548 
L 250.983029 388.115198 
L 251.984268 388.206282 
L 252.985506 388.077659 
L 255.924626 388.130036 
L 261.802866 388.257222 
L 263.773046 388.19035 
L 265.743225 388.148758 
L 266.744464 389.050783 
L 268.714643 389.279812 
L 271.653763 388.845757 
L 272.622704 389.012203 
L 273.623942 388.955216 
L 275.594122 389.114311 
L 276.59536 389.45642 
L 277.564301 389.246546 
L 278.56554 389.337423 
L 279.53448 389.603284 
L 281.536958 389.431899 
L 283.442541 389.209466 
L 284.411481 389.410427 
L 285.41272 388.814147 
L 286.381661 388.887301 
L 287.382899 388.617154 
L 288.384138 388.702345 
L 289.353079 388.618118 
L 291.323258 388.867909 
L 292.324497 389.157026 
L 293.325735 389.146907 
L 294.23008 389.510128 
L 295.231319 389.712289 
L 296.200259 389.54196 
L 297.201498 389.03996 
L 298.170439 389.636884 
L 299.171677 390.847373 
L 300.172916 391.305859 
L 301.141857 393.228273 
L 302.143095 394.673559 
L 303.112036 395.124683 
L 304.113275 394.180854 
L 305.114513 391.211449 
L 306.018858 391.641275 
L 307.020097 391.189535 
L 307.989037 394.735542 
L 308.990276 393.988723 
L 309.959217 402.652734 
L 310.960455 385.147041 
L 311.961694 397.912011 
L 312.930634 401.24062 
L 313.931873 392.43072 
L 314.900814 397.198403 
L 315.902052 392.601858 
L 316.903291 379.699309 
L 317.839934 387.862417 
L 318.841172 388.914296 
L 319.810113 389.46992 
L 320.811352 389.702446 
L 321.780292 389.679023 
L 322.781531 389.475065 
L 324.75171 389.594309 
L 325.752949 387.380847 
L 326.72189 384.884319 
L 327.723128 384.070711 
L 328.724367 386.127237 
L 329.628712 384.857045 
L 330.62995 402.918221 
L 331.598891 384.102904 
L 332.60013 381.586184 
L 333.56907 381.65036 
L 334.570309 384.806592 
L 335.571548 385.853116 
L 336.540488 385.266021 
L 337.541727 386.208724 
L 338.510668 386.133917 
L 339.511906 385.619291 
L 340.513145 383.647549 
L 341.41749 382.910663 
L 342.418728 380.637722 
L 343.387669 396.195595 
L 345.357848 390.542216 
L 346.359087 390.16055 
L 347.360326 390.858922 
L 348.329266 390.745448 
L 349.330505 391.0694 
L 350.299445 390.019581 
L 351.300684 390.387777 
L 352.301923 390.891515 
L 353.206267 390.922369 
L 354.207506 393.665006 
L 355.176447 394.765144 
L 356.177685 395.668666 
L 357.146626 385.237113 
L 358.147865 385.834758 
L 359.149103 386.781224 
L 360.118044 387.173184 
L 362.088223 386.365565 
L 363.089462 386.571447 
L 364.090701 387.41588 
L 365.027343 387.08505 
L 366.997523 387.210602 
L 367.998761 387.253418 
L 368.967702 387.06419 
L 369.968941 387.256683 
L 370.970179 387.261488 
L 371.93912 387.500654 
L 372.940359 387.505734 
L 373.909299 387.667093 
L 376.816121 387.747623 
L 377.81736 387.496693 
L 379.787539 387.524624 
L 380.75648 387.556666 
L 381.757719 387.836508 
L 382.758957 387.702311 
L 383.727898 387.766296 
L 384.729137 387.367965 
L 385.698077 387.46297 
L 388.604899 387.31013 
L 389.606138 387.529201 
L 390.575078 387.490323 
L 391.576317 387.624005 
L 392.545258 387.633705 
L 394.547735 385.976063 
L 395.516676 386.880202 
L 397.486855 387.345826 
L 398.488094 387.335187 
L 401.394916 387.999466 
L 402.363856 387.663515 
L 403.365095 388.03651 
L 404.334036 387.888034 
L 405.335274 387.401853 
L 406.336513 387.553713 
L 407.305454 387.464569 
L 408.306692 387.543853 
L 409.275633 388.049123 
L 410.276872 388.013504 
L 411.27811 388.429589 
L 412.214753 388.555181 
L 414.184932 387.912845 
L 415.186171 388.097927 
L 416.155112 387.929596 
L 417.15635 387.57838 
L 418.157589 387.872359 
L 419.12653 386.917107 
L 420.127768 386.963129 
L 421.096709 386.338966 
L 422.097948 385.450653 
L 423.099186 385.050007 
L 424.003531 377.693776 
L 425.004769 375.267424 
L 425.97371 383.86654 
L 426.974949 379.486078 
L 427.943889 395.145567 
L 428.945128 404.863342 
L 429.946367 390.578031 
L 430.915307 410.244638 
L 431.916546 337.301163 
L 432.885487 378.243822 
L 433.886725 378.362843 
L 434.887964 406.531936 
L 435.792309 385.269215 
L 436.793547 386.595963 
L 437.762488 392.573994 
L 438.763727 389.709988 
L 439.732667 389.092977 
L 441.735145 389.595388 
L 442.704085 389.365769 
L 443.705324 389.293336 
L 444.674265 388.963939 
L 445.675503 388.930625 
L 446.676742 388.316869 
L 447.581087 388.228585 
L 448.582325 388.582833 
L 449.551266 388.209509 
L 450.552505 388.565029 
L 452.522684 387.726151 
L 453.523923 340.294066 
L 454.492863 384.938298 
L 455.494102 389.413356 
L 456.463042 390.467792 
L 457.464281 389.228089 
L 458.46552 395.157593 
L 459.402162 389.537681 
L 461.372342 390.107042 
L 462.37358 389.868245 
L 463.342521 390.082831 
L 464.34376 390.17497 
L 465.344998 389.880991 
L 466.313939 390.359792 
L 467.315178 391.526579 
L 468.284118 390.677835 
L 469.285357 394.065996 
L 470.286596 385.156512 
L 472.192179 381.313432 
L 473.16112 380.156967 
L 474.162358 379.365311 
L 475.131299 363.604231 
L 476.132538 379.158156 
L 477.133776 384.785568 
L 478.102717 383.491258 
L 479.103956 382.922362 
L 480.072896 383.343039 
L 481.074135 385.566322 
L 482.075374 384.90796 
L 482.979718 386.757687 
L 483.980957 386.632309 
L 485.951136 385.85079 
L 486.920077 386.474466 
L 487.921316 386.269807 
L 488.922554 386.479886 
L 489.891495 386.406176 
L 491.861674 386.613167 
L 492.862913 386.576519 
L 493.864152 386.658351 
L 494.768496 386.385859 
L 496.738675 386.880496 
L 497.739914 386.981269 
L 498.708855 387.833514 
L 499.710093 387.223742 
L 500.711332 387.330159 
L 501.680273 387.857497 
L 503.650452 387.895135 
L 504.651691 387.706446 
L 505.652929 387.366864 
L 507.590811 387.910345 
L 508.559751 387.402286 
L 509.56099 387.275343 
L 510.529931 387.018915 
L 511.531169 386.357206 
L 512.532408 385.944857 
L 513.501349 331.772929 
L 514.502587 355.129047 
L 515.471528 365.682688 
L 516.472767 359.477936 
L 517.474005 314.628172 
L 518.37835 365.885497 
L 519.379589 375.977394 
L 520.348529 383.326789 
L 522.318709 381.65778 
L 523.319947 383.585112 
L 524.321186 383.150003 
L 525.290127 382.962351 
L 526.291365 383.431469 
L 527.260306 384.093816 
L 528.261545 384.924994 
L 529.262783 384.657545 
L 530.167128 385.28058 
L 531.168366 386.256577 
L 532.137307 386.336102 
L 534.107486 386.239279 
L 535.108725 386.498592 
L 536.109964 386.59035 
L 538.080143 388.498153 
L 539.049084 388.740805 
L 540.050322 389.231606 
L 541.051561 389.972498 
L 541.955906 390.064201 
L 543.926085 389.17859 
L 544.927324 389.195704 
L 545.896264 389.71736 
L 546.897503 391.803176 
L 547.898742 389.960881 
L 548.867682 389.594393 
L 549.868921 390.002372 
L 550.837862 389.059829 
L 551.8391 389.474956 
L 552.840339 393.197836 
L 553.776982 394.921877 
L 554.77822 395.682296 
L 555.747161 412.105062 
L 556.7484 401.237935 
L 557.71734 403.611552 
L 558.718579 392.672908 
L 559.719818 394.255983 
L 560.688758 391.697758 
L 561.689997 389.575413 
L 562.658938 391.164028 
L 564.661415 389.176214 
L 565.565759 388.37293 
L 566.566998 387.935377 
L 567.535939 386.440882 
L 568.537177 389.295943 
L 569.506118 388.936519 
L 570.507357 390.131297 
L 571.508595 391.703487 
L 572.477536 388.302638 
L 574.447715 388.534452 
L 575.448954 388.097107 
L 576.450193 387.86837 
L 577.354537 387.954718 
L 578.355776 387.878892 
L 579.324717 387.657462 
L 580.325955 387.663249 
L 581.294896 387.925321 
L 582.296135 387.95678 
L 586.236493 387.389403 
L 587.237732 387.168211 
L 588.238971 388.472754 
L 589.143315 388.107335 
L 590.144554 388.032306 
L 591.113495 388.353375 
L 592.114733 388.484658 
L 593.083674 388.20547 
L 594.084913 388.100939 
L 595.086151 387.879794 
L 596.055092 388.065079 
L 598.025271 388.03259 
L 599.02651 387.796979 
L 600.027749 387.777578 
L 600.964391 388.000686 
L 601.96563 388.044051 
L 602.93457 387.851224 
L 603.935809 387.791141 
L 604.90475 387.908676 
L 606.907227 387.850885 
L 607.876168 388.074863 
L 608.877406 388.061077 
L 609.846347 388.219643 
L 614.723348 388.014187 
L 615.724587 388.222371 
L 618.696005 388.180686 
L 621.635125 388.388419 
L 622.636364 388.383396 
L 622.636364 388.383396 
" style="fill:none;stroke:#2ca02c;stroke-linecap:square;stroke-width:1.5;"/>
   </g>
   <g id="line2d_19">
    <path clip-path="url(#p452537a93a)" d="M 115.363636 389.304557 
L 116.364875 389.377487 
L 117.26922 389.698964 
L 118.270458 389.402206 
L 119.239399 390.417194 
L 120.240638 393.37172 
L 121.209578 392.97079 
L 122.210817 389.54952 
L 123.212056 389.441756 
L 124.180996 388.882727 
L 125.182235 388.703834 
L 127.152414 388.78032 
L 128.153653 389.487288 
L 129.090296 389.488002 
L 130.091534 389.3677 
L 131.060475 390.189715 
L 132.061714 389.715837 
L 134.031893 389.444438 
L 135.033132 390.237957 
L 136.002072 388.898871 
L 137.003311 391.280213 
L 137.972251 387.804544 
L 138.97349 387.735331 
L 139.974729 388.610008 
L 140.879073 388.579426 
L 142.849253 388.814274 
L 143.850491 388.274597 
L 144.819432 388.318868 
L 147.79085 387.929647 
L 148.792089 388.007493 
L 150.762268 387.87027 
L 151.763507 387.830965 
L 152.667851 388.099615 
L 153.66909 388.15966 
L 154.638031 388.051877 
L 155.639269 388.19963 
L 157.609449 387.811009 
L 159.579628 388.235187 
L 160.580867 388.074245 
L 162.551046 388.798773 
L 163.552285 388.271143 
L 164.456629 388.488502 
L 165.457868 388.604205 
L 166.426809 388.84924 
L 167.428047 389.582857 
L 168.396988 388.922022 
L 169.398227 388.971525 
L 170.399465 389.804706 
L 171.368406 389.033375 
L 172.369644 388.597164 
L 174.339824 389.156934 
L 175.341062 388.875317 
L 176.277705 388.77378 
L 177.278944 388.811071 
L 178.247884 389.207667 
L 179.249123 392.14151 
L 180.218064 389.480463 
L 181.219302 389.99722 
L 182.220541 389.351033 
L 183.189482 389.221945 
L 184.19072 388.719625 
L 185.159661 388.601388 
L 194.009319 388.796952 
L 194.97826 388.664977 
L 195.979498 388.949928 
L 196.948439 389.012607 
L 198.950916 388.614616 
L 205.798097 388.699973 
L 206.767037 388.878955 
L 207.768276 388.894514 
L 208.737217 389.056623 
L 209.738455 389.568936 
L 210.739694 389.18239 
L 211.644039 389.679937 
L 212.645277 390.538638 
L 213.614218 406.577648 
L 214.615457 390.134622 
L 215.584397 391.565993 
L 216.585636 390.484726 
L 217.586875 391.038422 
L 218.555815 392.797213 
L 219.557054 393.558849 
L 220.525995 384.999792 
L 221.527233 386.371632 
L 222.528472 387.202723 
L 223.465115 384.837832 
L 224.466353 387.523309 
L 225.435294 387.20258 
L 226.436533 385.883294 
L 227.405473 388.78716 
L 228.406712 388.637395 
L 229.407951 386.577467 
L 230.376891 390.203335 
L 231.37813 388.721252 
L 234.349548 389.108712 
L 238.225311 388.89859 
L 240.19549 388.929266 
L 242.165669 388.918247 
L 243.166908 388.769121 
L 246.138326 388.943188 
L 247.04267 388.856282 
L 251.984268 388.993234 
L 253.954447 388.646231 
L 255.924626 388.687004 
L 260.801628 388.379529 
L 263.773046 388.370046 
L 265.743225 388.428354 
L 266.744464 388.686059 
L 267.713404 388.310965 
L 268.714643 388.998292 
L 269.715882 389.154764 
L 270.652524 388.972354 
L 271.653763 388.908993 
L 272.622704 389.73249 
L 273.623942 389.459794 
L 275.594122 389.876198 
L 276.59536 391.040026 
L 277.564301 390.579914 
L 279.53448 390.833668 
L 280.535719 390.427021 
L 281.536958 390.154877 
L 282.441302 390.276968 
L 283.442541 390.298554 
L 284.411481 390.088978 
L 285.41272 389.623168 
L 286.381661 389.536579 
L 288.384138 389.711758 
L 291.323258 389.491083 
L 292.324497 389.673639 
L 293.325735 390.660759 
L 295.231319 391.44607 
L 296.200259 391.221278 
L 297.201498 391.491513 
L 298.170439 391.960893 
L 299.171677 392.09964 
L 300.172916 392.395521 
L 301.141857 395.617839 
L 302.143095 397.16879 
L 303.112036 394.528048 
L 304.113275 392.820343 
L 305.114513 390.871777 
L 306.018858 392.602359 
L 307.020097 395.888348 
L 307.989037 397.913843 
L 308.990276 396.199535 
L 309.959217 410.617565 
L 310.960455 367.211739 
L 311.961694 407.773071 
L 312.930634 414.592896 
L 313.931873 395.77546 
L 314.900814 399.241511 
L 315.902052 394.901456 
L 316.903291 360.109698 
L 317.839934 383.702473 
L 318.841172 384.549598 
L 319.810113 385.069164 
L 320.811352 386.242237 
L 321.780292 385.97221 
L 322.781531 386.073228 
L 323.78277 385.384655 
L 324.75171 385.368471 
L 325.752949 390.797346 
L 326.72189 397.241233 
L 327.723128 397.264924 
L 328.724367 393.569592 
L 329.628712 405.960313 
L 330.62995 362.6123 
L 331.598891 394.801331 
L 332.60013 397.352911 
L 333.56907 397.45804 
L 334.570309 393.023366 
L 335.571548 391.908191 
L 336.540488 392.785711 
L 337.541727 390.314416 
L 338.510668 390.154539 
L 339.511906 390.697843 
L 340.513145 392.811077 
L 341.41749 393.930014 
L 342.418728 395.983632 
L 343.387669 376.354138 
L 345.357848 383.77271 
L 346.359087 383.458048 
L 347.360326 384.021728 
L 348.329266 383.636924 
L 349.330505 383.550789 
L 350.299445 386.287971 
L 351.300684 386.116029 
L 352.301923 385.583442 
L 354.207506 385.533345 
L 355.176447 383.669904 
L 356.177685 384.105874 
L 357.146626 388.789557 
L 358.147865 391.170685 
L 359.149103 390.251493 
L 360.118044 389.899326 
L 361.119283 389.816216 
L 362.088223 390.147485 
L 363.089462 389.924613 
L 364.090701 389.347954 
L 365.027343 389.553061 
L 366.997523 389.023203 
L 367.998761 389.328305 
L 368.967702 389.205638 
L 369.968941 389.201627 
L 373.909299 388.527356 
L 376.816121 388.375301 
L 377.81736 388.584634 
L 380.75648 388.571277 
L 381.757719 388.455569 
L 382.758957 388.535616 
L 383.727898 388.460503 
L 384.729137 388.56304 
L 385.698077 388.440318 
L 386.699316 388.627767 
L 389.606138 388.642232 
L 391.576317 389.161709 
L 392.545258 389.200708 
L 393.546496 390.344155 
L 394.547735 392.067458 
L 397.486855 392.091518 
L 398.488094 393.378685 
L 399.489332 395.063104 
L 400.393677 392.704163 
L 401.394916 391.101136 
L 402.363856 391.075244 
L 403.365095 390.515373 
L 404.334036 390.398948 
L 405.335274 390.691402 
L 406.336513 390.751118 
L 408.306692 390.450595 
L 409.275633 389.716625 
L 410.276872 390.287922 
L 411.27811 389.768704 
L 412.214753 389.70969 
L 413.215992 389.937958 
L 414.184932 389.472794 
L 415.186171 389.427263 
L 416.155112 388.85547 
L 417.15635 388.439331 
L 418.157589 388.735809 
L 419.12653 387.158958 
L 420.127768 388.626588 
L 421.096709 388.60988 
L 422.097948 389.028011 
L 423.099186 388.398077 
L 424.003531 392.761273 
L 425.004769 396.088506 
L 425.97371 391.771299 
L 426.974949 391.860681 
L 427.943889 370.101437 
L 428.945128 370.043659 
L 429.946367 386.769277 
L 430.915307 364.573638 
L 431.916546 441.627514 
L 432.885487 395.954792 
L 433.886725 395.835758 
L 434.887964 379.101781 
L 435.792309 392.1242 
L 436.793547 388.06843 
L 437.762488 387.213305 
L 438.763727 387.849361 
L 439.732667 388.320159 
L 440.733906 388.185211 
L 441.735145 388.179506 
L 442.704085 388.012868 
L 443.705324 388.099665 
L 445.675503 388.62691 
L 449.551266 388.54663 
L 450.552505 389.124243 
L 451.521445 389.285214 
L 452.522684 392.319258 
L 453.523923 199.677288 
L 454.492863 380.749303 
L 455.494102 395.454639 
L 456.463042 396.475959 
L 457.464281 396.907009 
L 458.46552 404.363883 
L 459.402162 392.380354 
L 460.403401 392.021294 
L 462.37358 390.411543 
L 463.342521 390.529989 
L 465.344998 391.40362 
L 466.313939 393.077349 
L 467.315178 392.955925 
L 468.284118 391.308549 
L 469.285357 394.385149 
L 470.286596 386.461063 
L 471.19094 386.197151 
L 472.192179 384.655354 
L 473.16112 384.554766 
L 474.162358 385.132584 
L 475.131299 377.568806 
L 476.132538 384.456066 
L 477.133776 386.974552 
L 478.102717 386.947816 
L 479.103956 384.772073 
L 481.074135 385.442202 
L 482.075374 384.635938 
L 482.979718 386.145417 
L 483.980957 386.004136 
L 484.949898 385.333342 
L 485.951136 384.864728 
L 486.920077 385.793377 
L 487.921316 385.9798 
L 488.922554 386.979147 
L 489.891495 387.08767 
L 491.861674 387.124067 
L 492.862913 387.331309 
L 493.864152 387.344443 
L 494.768496 386.880043 
L 497.739914 386.76778 
L 498.708855 387.278486 
L 499.710093 386.825253 
L 501.680273 387.125291 
L 502.681511 386.50536 
L 503.650452 386.856262 
L 504.651691 386.309886 
L 505.652929 386.705549 
L 506.589572 386.801588 
L 507.590811 386.787244 
L 508.559751 386.402211 
L 509.56099 385.864589 
L 510.529931 385.6951 
L 511.531169 385.85228 
L 512.532408 385.856473 
L 513.501349 340.183519 
L 514.502587 362.614755 
L 515.471528 371.226183 
L 516.472767 363.019155 
L 517.474005 306.23084 
L 518.37835 371.599827 
L 519.379589 378.877107 
L 520.348529 381.510123 
L 521.349768 381.959937 
L 522.318709 383.091718 
L 523.319947 384.722738 
L 524.321186 384.264339 
L 525.290127 384.696081 
L 526.291365 384.794305 
L 527.260306 385.33251 
L 529.262783 385.47068 
L 531.168366 386.669864 
L 534.107486 386.311722 
L 535.108725 386.538979 
L 536.109964 386.441879 
L 537.078904 386.471031 
L 538.080143 386.121265 
L 539.049084 386.35656 
L 540.050322 386.84701 
L 541.955906 386.335708 
L 542.957144 386.296226 
L 543.926085 387.047535 
L 544.927324 386.657798 
L 545.896264 386.839281 
L 547.898742 386.339305 
L 548.867682 386.262302 
L 549.868921 386.619803 
L 550.837862 387.468432 
L 551.8391 386.785798 
L 552.840339 388.215396 
L 553.776982 389.754911 
L 554.77822 390.697521 
L 555.747161 401.604123 
L 556.7484 394.919723 
L 557.71734 403.105511 
L 558.718579 390.990898 
L 559.719818 390.416819 
L 560.688758 389.313938 
L 561.689997 388.362041 
L 562.658938 388.486194 
L 563.660176 391.546029 
L 564.661415 390.707869 
L 565.565759 391.731495 
L 566.566998 395.580423 
L 567.535939 398.36749 
L 568.537177 407.974359 
L 569.506118 397.519631 
L 570.507357 398.407311 
L 571.508595 397.693081 
L 572.477536 388.348176 
L 574.447715 388.195632 
L 576.450193 388.253063 
L 577.354537 388.529118 
L 578.355776 388.52272 
L 579.324717 388.898238 
L 580.325955 389.057015 
L 581.294896 388.425715 
L 582.296135 388.238131 
L 583.297373 388.318362 
L 584.266314 388.679559 
L 585.267553 388.529464 
L 586.236493 388.825174 
L 587.237732 388.635423 
L 588.238971 388.659252 
L 589.143315 388.56757 
L 590.144554 388.314304 
L 591.113495 388.952704 
L 592.114733 388.971902 
L 594.084913 388.552173 
L 595.086151 388.80653 
L 596.055092 388.93517 
L 597.056331 388.913591 
L 598.025271 389.161134 
L 599.02651 389.806245 
L 600.027749 389.927611 
L 600.964391 389.591729 
L 601.96563 389.482414 
L 602.93457 388.933824 
L 603.935809 388.868193 
L 604.90475 389.227801 
L 605.905988 389.040839 
L 609.846347 388.793171 
L 610.847586 388.91818 
L 611.848824 388.774654 
L 613.754408 388.871065 
L 614.723348 388.723084 
L 615.724587 388.837153 
L 617.694766 388.828106 
L 618.696005 388.970633 
L 621.635125 388.901069 
L 622.636364 388.952058 
L 622.636364 388.952058 
" style="fill:none;stroke:#d62728;stroke-linecap:square;stroke-width:1.5;"/>
   </g>
   <g id="line2d_20">
    <path clip-path="url(#p452537a93a)" d="M 115.363636 387.659854 
L 116.364875 387.315978 
L 117.26922 387.164172 
L 118.270458 387.377256 
L 119.239399 386.841173 
L 120.240638 385.847273 
L 121.209578 386.291615 
L 122.210817 387.531306 
L 123.212056 387.261361 
L 124.180996 387.700859 
L 125.182235 387.636969 
L 126.151176 386.861778 
L 127.152414 386.685823 
L 129.090296 386.703694 
L 130.091534 386.986087 
L 131.060475 386.320717 
L 132.061714 386.76147 
L 133.030654 387.025733 
L 134.031893 387.529054 
L 135.033132 386.521851 
L 136.002072 387.198008 
L 137.003311 385.216888 
L 137.972251 387.30363 
L 138.97349 387.850076 
L 139.974729 387.503882 
L 142.849253 387.69811 
L 143.850491 388.164544 
L 145.820671 388.074374 
L 148.792089 388.096636 
L 149.761029 388.076819 
L 150.762268 388.196027 
L 153.66909 387.964162 
L 154.638031 388.155832 
L 156.60821 388.250759 
L 157.609449 388.41691 
L 158.610687 388.329174 
L 159.579628 388.097346 
L 160.580867 388.150237 
L 161.549807 387.81816 
L 162.551046 387.784405 
L 163.552285 388.25258 
L 164.456629 387.828974 
L 165.457868 387.875751 
L 166.426809 387.606413 
L 167.428047 387.120935 
L 168.396988 387.616906 
L 169.398227 387.90031 
L 170.399465 387.363843 
L 171.368406 387.227183 
L 172.369644 387.813805 
L 173.338585 387.733025 
L 174.339824 387.50426 
L 176.277705 387.915483 
L 177.278944 387.885905 
L 178.247884 387.473272 
L 179.249123 385.33085 
L 180.218064 387.180015 
L 181.219302 387.158138 
L 182.220541 387.581433 
L 183.189482 387.594638 
L 184.19072 388.00618 
L 185.159661 388.116934 
L 186.1609 388.010213 
L 188.066483 388.054802 
L 189.067722 387.864236 
L 190.036662 387.967681 
L 192.006842 387.890907 
L 193.00808 387.926197 
L 194.009319 387.832984 
L 194.97826 387.95859 
L 195.979498 387.699029 
L 196.948439 387.586433 
L 198.950916 387.971932 
L 199.855261 387.872628 
L 201.82544 387.984426 
L 204.796858 387.995791 
L 206.767037 388.28022 
L 209.738455 388.025269 
L 210.739694 388.164771 
L 211.644039 387.997842 
L 212.645277 387.926245 
L 213.614218 378.999477 
L 214.615457 387.502677 
L 216.585636 386.579936 
L 217.586875 386.098101 
L 218.555815 385.378378 
L 219.557054 387.997378 
L 220.525995 389.897431 
L 221.527233 389.492615 
L 222.528472 389.40782 
L 223.465115 391.277781 
L 224.466353 389.479802 
L 225.435294 389.573559 
L 226.436533 402.68429 
L 227.405473 386.696723 
L 229.407951 389.423456 
L 230.376891 386.646342 
L 231.37813 388.394557 
L 233.348309 388.369326 
L 234.349548 388.141117 
L 235.253893 388.058135 
L 240.19549 388.376524 
L 242.165669 388.452748 
L 243.166908 388.556351 
L 244.135848 388.398865 
L 245.137087 388.423897 
L 246.138326 388.225353 
L 247.04267 388.323544 
L 250.014088 388.101214 
L 251.984268 388.039493 
L 253.954447 388.354426 
L 255.924626 388.291144 
L 257.927104 388.320364 
L 262.771807 388.481543 
L 263.773046 388.308211 
L 266.744464 388.23675 
L 267.713404 388.657308 
L 268.714643 388.17313 
L 269.715882 387.93111 
L 270.652524 388.165106 
L 272.622704 388.141292 
L 273.623942 388.0397 
L 274.592883 388.10064 
L 275.594122 387.978532 
L 276.59536 387.305672 
L 277.564301 387.766571 
L 278.56554 387.437469 
L 279.53448 386.945075 
L 280.535719 387.292282 
L 282.441302 387.12575 
L 284.411481 386.962666 
L 287.382899 387.483906 
L 289.353079 387.045841 
L 290.354317 387.167983 
L 293.325735 387.131758 
L 294.23008 386.329101 
L 295.231319 385.934336 
L 296.200259 386.036477 
L 297.201498 385.810717 
L 298.170439 385.87215 
L 299.171677 385.250001 
L 300.172916 384.223837 
L 301.141857 381.741491 
L 302.143095 379.717649 
L 303.112036 382.372742 
L 304.113275 382.35077 
L 305.114513 384.21595 
L 306.018858 383.356308 
L 307.020097 379.459724 
L 307.989037 378.311946 
L 308.990276 379.678533 
L 309.959217 360.120533 
L 310.960455 413.986627 
L 311.961694 356.868835 
L 312.930634 349.503228 
L 313.931873 374.567871 
L 314.900814 365.500566 
L 315.902052 374.662097 
L 316.903291 430.043978 
L 317.839934 393.352172 
L 318.841172 392.153101 
L 319.810113 391.667376 
L 320.811352 390.415289 
L 321.780292 390.98244 
L 322.781531 390.870029 
L 323.78277 391.686803 
L 324.75171 391.963062 
L 325.752949 384.376178 
L 326.72189 378.827432 
L 327.723128 379.479334 
L 328.724367 382.8363 
L 329.628712 371.31181 
L 330.62995 406.581242 
L 331.598891 382.187042 
L 332.60013 380.412599 
L 333.56907 379.954475 
L 334.570309 384.130383 
L 335.571548 384.887763 
L 336.540488 384.203483 
L 337.541727 385.675342 
L 338.510668 386.076487 
L 339.511906 385.450373 
L 340.513145 384.031163 
L 341.41749 382.37054 
L 342.418728 381.069756 
L 343.387669 397.135114 
L 345.357848 391.923261 
L 346.359087 392.422409 
L 348.329266 392.250346 
L 349.330505 392.214571 
L 350.299445 389.657584 
L 352.301923 391.38717 
L 353.206267 391.81605 
L 354.207506 392.860552 
L 355.176447 395.460734 
L 356.177685 395.647653 
L 357.146626 383.605735 
L 358.147865 383.841312 
L 359.149103 385.516633 
L 360.118044 385.915378 
L 361.119283 386.186521 
L 362.088223 385.886659 
L 363.089462 386.555346 
L 364.090701 386.716575 
L 365.027343 386.406928 
L 366.028582 386.799079 
L 366.997523 386.836849 
L 367.998761 386.583815 
L 368.967702 386.804574 
L 369.968941 386.752609 
L 370.970179 386.883533 
L 371.93912 387.129984 
L 372.940359 387.084271 
L 373.909299 387.456208 
L 379.787539 387.523738 
L 380.75648 387.620844 
L 381.757719 387.971072 
L 382.758957 387.496147 
L 383.727898 387.526737 
L 384.729137 387.133646 
L 385.698077 387.261614 
L 386.699316 387.082018 
L 387.700555 387.167262 
L 389.606138 386.980015 
L 391.576317 386.086536 
L 392.545258 386.089148 
L 393.546496 383.862475 
L 394.547735 380.369827 
L 395.516676 381.020605 
L 397.486855 381.154787 
L 398.488094 378.846239 
L 399.489332 375.282801 
L 400.393677 380.962876 
L 401.394916 383.059314 
L 402.363856 382.939037 
L 403.365095 384.350325 
L 404.334036 384.647784 
L 405.335274 383.975037 
L 406.336513 384.335882 
L 408.306692 384.67905 
L 409.275633 385.476547 
L 410.276872 384.326968 
L 411.27811 384.494196 
L 412.214753 385.518614 
L 413.215992 384.895943 
L 414.184932 385.358068 
L 415.186171 386.031111 
L 416.155112 386.110287 
L 417.15635 385.936843 
L 418.157589 386.002621 
L 419.12653 386.788158 
L 421.096709 385.52244 
L 422.097948 383.044549 
L 423.099186 384.588307 
L 424.003531 379.168239 
L 425.004769 369.673704 
L 425.97371 382.521228 
L 426.974949 376.64974 
L 427.943889 441.071139 
L 428.945128 437.142849 
L 429.946367 394.603384 
L 430.915307 429.378836 
L 431.916546 307.422347 
L 432.885487 373.446581 
L 433.886725 374.127671 
L 434.887964 410.443243 
L 435.792309 375.234198 
L 436.793547 381.61353 
L 437.762488 389.122907 
L 438.763727 388.655784 
L 439.732667 388.428045 
L 440.733906 388.705275 
L 441.735145 388.402646 
L 442.704085 388.454726 
L 443.705324 388.747332 
L 445.675503 389.034932 
L 446.676742 388.809873 
L 447.581087 388.923729 
L 448.582325 388.671708 
L 449.551266 389.15152 
L 450.552505 389.366601 
L 451.521445 389.010614 
L 452.522684 388.470222 
L 453.523923 404.595485 
L 454.492863 390.844836 
L 455.494102 386.189307 
L 456.463042 384.976065 
L 457.464281 385.094651 
L 458.46552 382.368733 
L 459.402162 386.046422 
L 460.403401 386.002819 
L 461.372342 386.338805 
L 462.37358 387.604631 
L 463.342521 387.003909 
L 464.34376 386.767434 
L 465.344998 386.736098 
L 466.313939 386.325405 
L 467.315178 387.111762 
L 468.284118 387.664924 
L 469.285357 386.104489 
L 470.286596 388.498796 
L 471.19094 388.181986 
L 472.192179 389.041939 
L 473.16112 387.934731 
L 474.162358 387.231558 
L 475.131299 388.144593 
L 476.132538 388.67815 
L 477.133776 387.983253 
L 478.102717 388.459658 
L 479.103956 389.752789 
L 481.074135 389.680105 
L 482.075374 390.402585 
L 482.979718 389.057031 
L 483.980957 389.158213 
L 484.949898 389.638345 
L 485.951136 389.948621 
L 486.920077 389.506286 
L 487.921316 389.359866 
L 488.922554 388.814302 
L 489.891495 388.461247 
L 490.892734 388.546221 
L 492.862913 388.374624 
L 493.864152 388.383679 
L 494.768496 388.612579 
L 495.769735 388.578839 
L 496.738675 388.345898 
L 497.739914 388.441458 
L 498.708855 388.262486 
L 499.710093 388.387172 
L 501.680273 388.394972 
L 502.681511 388.897221 
L 503.650452 388.784746 
L 504.651691 389.380959 
L 505.652929 388.389472 
L 506.589572 389.004072 
L 507.590811 388.811071 
L 508.559751 389.408508 
L 509.56099 389.610455 
L 510.529931 389.584226 
L 511.531169 389.845182 
L 512.532408 389.802625 
L 513.501349 440.452362 
L 514.502587 418.814859 
L 515.471528 406.734496 
L 516.472767 424.411842 
L 517.474005 512.33027 
L 518.37835 410.540701 
L 519.379589 399.342213 
L 520.348529 395.318892 
L 521.349768 394.065296 
L 522.318709 393.17377 
L 523.319947 391.637677 
L 524.321186 392.109611 
L 525.290127 391.499086 
L 526.291365 391.412843 
L 527.260306 391.004667 
L 528.261545 390.917613 
L 530.167128 390.49197 
L 531.168366 389.902266 
L 532.137307 389.882779 
L 533.138546 390.040209 
L 534.107486 390.721855 
L 535.108725 390.437342 
L 536.109964 390.320295 
L 537.078904 388.657525 
L 538.080143 389.209764 
L 539.049084 388.780259 
L 541.955906 386.280223 
L 542.957144 385.851173 
L 543.926085 386.00581 
L 544.927324 387.62685 
L 545.896264 386.792231 
L 546.897503 385.625571 
L 547.898742 386.326207 
L 548.867682 386.666274 
L 549.868921 386.206891 
L 551.8391 386.369919 
L 552.840339 382.872393 
L 554.77822 379.76629 
L 555.747161 363.106372 
L 556.7484 371.92316 
L 557.71734 365.446592 
L 558.718579 384.215855 
L 559.719818 379.381456 
L 560.688758 380.007205 
L 561.689997 384.355753 
L 562.658938 384.634161 
L 563.660176 383.319704 
L 564.661415 385.138061 
L 565.565759 385.165924 
L 566.566998 382.377154 
L 567.535939 380.525733 
L 568.537177 373.034093 
L 569.506118 381.113239 
L 570.507357 378.039885 
L 571.508595 379.398837 
L 572.477536 387.208108 
L 573.478775 386.422164 
L 574.447715 386.401129 
L 575.448954 386.14701 
L 576.450193 386.261361 
L 577.354537 386.047153 
L 578.355776 386.082084 
L 579.324717 385.327998 
L 580.325955 385.145563 
L 581.294896 386.025535 
L 582.296135 386.326811 
L 583.297373 386.15658 
L 584.266314 385.366478 
L 585.267553 385.536024 
L 586.236493 385.060496 
L 588.238971 385.246715 
L 589.143315 384.987556 
L 590.144554 385.678921 
L 591.113495 385.238526 
L 593.083674 385.32495 
L 594.084913 385.374689 
L 595.086151 384.054517 
L 596.055092 384.294949 
L 597.056331 384.171479 
L 598.025271 383.542686 
L 599.02651 382.191131 
L 600.027749 381.083594 
L 600.964391 382.973931 
L 601.96563 382.999356 
L 602.93457 383.28544 
L 604.90475 384.763173 
L 605.905988 385.897953 
L 606.907227 385.871812 
L 607.876168 385.979607 
L 608.877406 385.934366 
L 611.848824 386.211705 
L 612.753169 386.139813 
L 613.754408 386.179255 
L 614.723348 386.415737 
L 617.694766 386.091005 
L 620.666184 385.88441 
L 622.636364 385.679385 
L 622.636364 385.679385 
" style="fill:none;stroke:#9467bd;stroke-linecap:square;stroke-width:1.5;"/>
   </g>
   <g id="line2d_21">
    <path clip-path="url(#p452537a93a)" d="M 115.363636 387.793171 
L 116.364875 388.411038 
L 118.270458 388.400371 
L 119.239399 388.467352 
L 120.240638 388.676995 
L 122.210817 388.454985 
L 123.212056 388.582696 
L 124.180996 388.520094 
L 126.151176 388.615164 
L 131.060475 388.717881 
L 134.031893 388.167548 
L 135.033132 386.953422 
L 136.002072 387.416738 
L 137.003311 387.031039 
L 137.972251 384.926589 
L 138.97349 387.938469 
L 139.974729 388.251179 
L 142.849253 388.571363 
L 144.819432 388.52419 
L 150.762268 388.635093 
L 156.60821 388.70822 
L 159.579628 388.826987 
L 160.580867 388.702839 
L 161.549807 388.870905 
L 163.552285 388.653661 
L 164.456629 388.851563 
L 166.426809 388.853642 
L 167.428047 389.018237 
L 168.396988 388.875026 
L 171.368406 389.082433 
L 172.369644 388.702983 
L 173.338585 388.866399 
L 174.339824 388.900364 
L 176.277705 388.656926 
L 177.278944 388.681013 
L 178.247884 388.849183 
L 179.249123 389.877207 
L 180.218064 389.060905 
L 181.219302 389.375409 
L 183.189482 388.77709 
L 185.159661 388.586856 
L 187.162138 388.502066 
L 193.00808 388.614633 
L 195.979498 388.747145 
L 198.950916 388.527144 
L 200.8565 388.534182 
L 201.82544 388.425042 
L 203.79562 388.480534 
L 206.767037 388.526166 
L 209.738455 388.454918 
L 210.739694 388.698983 
L 211.644039 388.727711 
L 212.645277 389.809347 
L 213.614218 389.664133 
L 214.615457 389.079952 
L 215.584397 388.991828 
L 216.585636 388.724429 
L 217.586875 388.744091 
L 218.555815 389.140577 
L 219.557054 392.112503 
L 220.525995 386.329804 
L 221.527233 386.658942 
L 222.528472 387.357301 
L 223.465115 388.163175 
L 224.466353 388.624488 
L 225.435294 390.120662 
L 226.436533 386.428286 
L 227.405473 388.652366 
L 228.406712 390.011458 
L 229.407951 390.91319 
L 230.376891 385.235889 
L 231.37813 387.536592 
L 232.347071 387.721965 
L 234.349548 387.784439 
L 236.255131 387.977805 
L 238.225311 388.009805 
L 239.194251 388.151824 
L 240.19549 387.990972 
L 244.135848 387.984028 
L 248.043909 387.942836 
L 249.01285 388.055698 
L 250.983029 388.012817 
L 251.984268 388.113704 
L 257.927104 388.039379 
L 264.774284 388.095009 
L 265.743225 388.077051 
L 266.744464 388.297025 
L 267.713404 388.197713 
L 268.714643 387.969126 
L 269.715882 388.095289 
L 270.652524 388.069604 
L 271.653763 388.15355 
L 272.622704 387.70246 
L 273.623942 387.990201 
L 274.592883 387.804652 
L 275.594122 387.865936 
L 277.564301 387.64148 
L 279.53448 388.096165 
L 280.535719 388.094625 
L 281.536958 387.939992 
L 282.441302 387.971579 
L 283.442541 388.149905 
L 284.411481 388.012167 
L 285.41272 388.335367 
L 286.381661 388.129814 
L 291.323258 388.434784 
L 295.231319 388.172122 
L 296.200259 388.412139 
L 297.201498 388.034047 
L 298.170439 387.470102 
L 300.172916 387.449055 
L 301.141857 385.618263 
L 302.143095 385.677889 
L 303.112036 385.204489 
L 304.113275 385.452873 
L 305.114513 386.881674 
L 306.018858 385.855668 
L 307.020097 384.464829 
L 307.989037 378.889455 
L 308.990276 380.619231 
L 309.959217 365.025938 
L 310.960455 417.929518 
L 311.961694 365.516742 
L 312.930634 357.984575 
L 313.931873 376.852391 
L 314.900814 374.644738 
L 315.902052 382.908229 
L 316.903291 405.026371 
L 317.839934 390.609742 
L 318.841172 390.495816 
L 319.810113 389.872109 
L 320.811352 388.909014 
L 321.780292 388.84159 
L 322.781531 389.018675 
L 323.78277 389.43642 
L 324.75171 389.548944 
L 325.752949 385.602178 
L 326.72189 384.637169 
L 327.723128 384.877058 
L 328.724367 386.182475 
L 329.628712 381.740106 
L 330.62995 394.414394 
L 331.598891 386.022403 
L 332.60013 385.377699 
L 333.56907 385.636511 
L 334.570309 386.424105 
L 335.571548 386.416002 
L 336.540488 385.904464 
L 337.541727 386.476935 
L 339.511906 386.041601 
L 340.513145 385.819934 
L 341.41749 386.045315 
L 342.418728 385.207038 
L 343.387669 390.604125 
L 345.357848 389.311504 
L 346.359087 389.932776 
L 347.360326 389.990512 
L 348.329266 391.455198 
L 349.330505 390.239316 
L 350.299445 388.859128 
L 351.300684 389.248615 
L 352.301923 389.518246 
L 353.206267 390.025907 
L 355.176447 394.74532 
L 356.177685 395.198434 
L 357.146626 383.966348 
L 358.147865 385.955575 
L 359.149103 386.899284 
L 360.118044 387.548906 
L 361.119283 387.370492 
L 362.088223 387.517974 
L 363.089462 388.148029 
L 366.028582 388.39653 
L 368.967702 388.497572 
L 369.968941 388.38899 
L 370.970179 388.429364 
L 371.93912 388.31045 
L 372.940359 388.432675 
L 373.909299 388.305888 
L 377.81736 388.391038 
L 378.786301 388.508492 
L 381.757719 388.082128 
L 383.727898 388.318564 
L 384.729137 388.541475 
L 386.699316 388.581242 
L 387.700555 388.489796 
L 388.604899 388.582676 
L 389.606138 388.282162 
L 390.575078 388.712364 
L 391.576317 388.985745 
L 392.545258 388.887324 
L 393.546496 390.072428 
L 394.547735 391.019418 
L 395.516676 389.600239 
L 396.517914 389.549495 
L 397.486855 389.81908 
L 398.488094 390.531467 
L 399.489332 391.87936 
L 400.393677 389.214611 
L 401.394916 388.979849 
L 402.363856 389.121076 
L 403.365095 388.24367 
L 404.334036 388.391297 
L 405.335274 388.668575 
L 407.305454 388.572532 
L 408.306692 388.611446 
L 409.275633 388.432244 
L 410.276872 389.801688 
L 411.27811 390.886869 
L 412.214753 389.857653 
L 413.215992 390.520965 
L 414.184932 390.563495 
L 415.186171 390.014282 
L 416.155112 390.089779 
L 417.15635 390.550088 
L 418.157589 390.196474 
L 419.12653 391.34366 
L 420.127768 391.165734 
L 421.096709 392.003662 
L 422.097948 393.740616 
L 423.099186 392.819313 
L 424.003531 401.948165 
L 425.004769 410.749834 
L 425.97371 394.84404 
L 426.974949 400.912567 
L 427.943889 346.374919 
L 428.945128 337.616226 
L 429.946367 381.592277 
L 430.915307 344.478187 
L 431.916546 460.27663 
L 432.885487 406.845872 
L 433.886725 405.787872 
L 434.887964 360.671841 
L 435.792309 403.537325 
L 436.793547 395.242503 
L 437.762488 381.324518 
L 438.763727 384.906027 
L 439.732667 386.043625 
L 440.733906 385.638899 
L 441.735145 385.65767 
L 442.704085 385.918974 
L 443.705324 385.658239 
L 444.674265 385.617401 
L 445.675503 385.405535 
L 446.676742 386.447 
L 449.551266 386.56166 
L 450.552505 385.895436 
L 451.521445 386.317365 
L 452.522684 386.247526 
L 453.523923 536.221118 
L 454.492863 393.40131 
L 455.494102 383.160982 
L 457.464281 383.386483 
L 458.46552 375.984802 
L 459.402162 385.572184 
L 460.403401 385.521609 
L 461.372342 385.759447 
L 462.37358 385.158568 
L 463.342521 385.579159 
L 464.34376 385.682428 
L 465.344998 386.286688 
L 467.315178 385.021658 
L 468.284118 385.889738 
L 469.285357 384.876222 
L 470.286596 385.907351 
L 471.19094 387.648462 
L 472.192179 387.799136 
L 473.16112 386.293021 
L 474.162358 386.373477 
L 475.131299 379.353522 
L 476.132538 384.460024 
L 477.133776 387.34937 
L 478.102717 387.446785 
L 479.103956 387.760988 
L 480.072896 388.314061 
L 481.074135 387.803922 
L 482.075374 387.935733 
L 482.979718 388.294039 
L 483.980957 387.468731 
L 484.949898 387.679689 
L 485.951136 387.578984 
L 486.920077 388.037869 
L 490.892734 388.534499 
L 491.861674 388.369311 
L 492.862913 388.598744 
L 495.769735 388.541586 
L 496.738675 388.840459 
L 498.708855 387.993246 
L 499.710093 388.430542 
L 500.711332 387.961417 
L 501.680273 388.278621 
L 502.681511 388.292531 
L 503.650452 387.985112 
L 506.589572 387.697194 
L 507.590811 387.809153 
L 508.559751 387.804181 
L 509.56099 387.980832 
L 510.529931 387.736782 
L 511.531169 387.945323 
L 512.532408 387.512231 
L 513.501349 389.039233 
L 514.502587 384.312878 
L 515.471528 377.932366 
L 516.472767 366.679556 
L 517.474005 283.056566 
L 518.37835 375.715283 
L 519.379589 386.168653 
L 520.348529 387.604859 
L 521.349768 388.305636 
L 522.318709 387.251718 
L 523.319947 388.234954 
L 524.321186 388.533919 
L 525.290127 388.69054 
L 526.291365 387.901313 
L 527.260306 387.502573 
L 529.262783 387.483377 
L 531.168366 385.967338 
L 532.137307 386.157854 
L 533.138546 385.960333 
L 535.108725 384.822436 
L 536.109964 384.939183 
L 537.078904 385.201912 
L 539.049084 383.79871 
L 540.050322 382.928919 
L 541.051561 383.72211 
L 541.955906 383.809823 
L 542.957144 384.247071 
L 543.926085 383.900467 
L 544.927324 384.474139 
L 545.896264 383.657766 
L 546.897503 379.74153 
L 547.898742 381.440977 
L 548.867682 380.56385 
L 549.868921 378.883018 
L 550.837862 377.827717 
L 551.8391 377.873827 
L 552.840339 371.270693 
L 553.776982 370.385121 
L 554.77822 367.151592 
L 555.747161 312.489928 
L 556.7484 345.022521 
L 557.71734 316.37752 
L 558.718579 372.580519 
L 559.719818 372.130863 
L 560.688758 373.263752 
L 561.689997 378.8834 
L 562.658938 377.961994 
L 563.660176 378.016256 
L 564.661415 380.77406 
L 565.565759 381.074414 
L 566.566998 378.018558 
L 567.535939 376.918298 
L 568.537177 365.256857 
L 569.506118 377.606026 
L 571.508595 377.78543 
L 572.477536 387.533841 
L 573.478775 388.295762 
L 574.447715 388.371432 
L 575.448954 388.941768 
L 576.450193 389.140326 
L 577.354537 388.704349 
L 578.355776 388.75738 
L 579.324717 389.334237 
L 580.325955 389.32345 
L 582.296135 389.030525 
L 583.297373 389.323839 
L 584.266314 389.805054 
L 585.267553 389.955565 
L 586.236493 390.297948 
L 587.237732 390.474013 
L 588.238971 389.974059 
L 589.143315 391.077979 
L 590.144554 390.645241 
L 591.113495 390.062315 
L 592.114733 389.782295 
L 594.084913 390.661347 
L 595.086151 392.020737 
L 596.055092 391.496838 
L 597.056331 391.664303 
L 598.025271 391.94586 
L 600.027749 393.53642 
L 600.964391 391.860943 
L 601.96563 391.975068 
L 602.93457 392.483748 
L 603.935809 391.555123 
L 604.90475 389.97741 
L 605.905988 389.395642 
L 606.907227 389.552106 
L 607.876168 389.248883 
L 608.877406 389.460647 
L 609.846347 389.389103 
L 610.847586 389.10304 
L 611.848824 389.216143 
L 613.754408 389.192802 
L 614.723348 389.261237 
L 615.724587 389.066638 
L 616.693528 389.182732 
L 621.635125 389.126519 
L 622.636364 389.280332 
L 622.636364 389.280332 
" style="fill:none;stroke:#8c564b;stroke-linecap:square;stroke-width:1.5;"/>
   </g>
   <g id="line2d_22">
    <path clip-path="url(#p452537a93a)" d="M 115.363636 388.258498 
L 117.26922 387.861475 
L 118.270458 388.173979 
L 119.239399 387.512558 
L 120.240638 386.321622 
L 121.209578 386.416004 
L 122.210817 387.971702 
L 124.180996 388.136937 
L 125.182235 387.595645 
L 126.151176 387.556003 
L 127.152414 387.119504 
L 129.090296 387.967412 
L 130.091534 387.963316 
L 131.060475 387.58358 
L 132.061714 387.687591 
L 133.030654 386.995654 
L 134.031893 386.763861 
L 135.033132 384.722268 
L 136.002072 386.58758 
L 137.003311 384.184776 
L 137.972251 378.545174 
L 138.97349 386.800798 
L 139.974729 387.642821 
L 140.879073 387.611698 
L 141.880312 387.209291 
L 142.849253 387.020159 
L 143.850491 387.586338 
L 144.819432 387.665886 
L 145.820671 387.928847 
L 146.821909 387.897778 
L 149.761029 388.245891 
L 151.763507 388.114588 
L 152.667851 388.051933 
L 153.66909 388.245693 
L 155.639269 388.111774 
L 156.60821 388.287209 
L 157.609449 388.345317 
L 158.610687 388.216779 
L 160.580867 388.371812 
L 161.549807 388.287713 
L 162.551046 388.079839 
L 163.552285 388.308434 
L 164.456629 388.108649 
L 165.457868 388.277727 
L 166.426809 388.250385 
L 167.428047 388.067287 
L 168.396988 388.438372 
L 170.399465 388.407531 
L 171.368406 388.664094 
L 172.369644 388.490344 
L 176.277705 388.413213 
L 183.189482 388.268657 
L 184.19072 388.40319 
L 192.006842 388.244593 
L 202.826679 388.474577 
L 204.796858 388.442243 
L 206.767037 388.393783 
L 208.737217 388.432738 
L 211.644039 388.770138 
L 212.645277 388.982021 
L 213.614218 394.046946 
L 214.615457 388.684939 
L 215.584397 388.81805 
L 216.585636 388.623484 
L 217.586875 388.870648 
L 218.555815 389.405882 
L 219.557054 388.871244 
L 220.525995 387.440261 
L 221.527233 387.385926 
L 222.528472 387.131133 
L 223.465115 384.072437 
L 224.466353 386.94916 
L 225.435294 384.755031 
L 226.436533 367.456296 
L 227.405473 389.990664 
L 228.406712 388.823014 
L 229.407951 388.819196 
L 230.376891 387.332075 
L 231.37813 388.326428 
L 233.348309 388.44819 
L 235.253893 388.44883 
L 237.224072 388.406325 
L 243.166908 388.465636 
L 246.138326 388.382134 
L 248.043909 388.374461 
L 250.983029 388.136163 
L 251.984268 388.15546 
L 252.985506 388.313836 
L 263.773046 388.353394 
L 265.743225 388.324939 
L 266.744464 387.982419 
L 269.715882 387.866751 
L 271.653763 388.092646 
L 273.623942 387.79199 
L 276.59536 387.657758 
L 277.564301 387.708355 
L 278.56554 387.635337 
L 279.53448 387.743407 
L 281.536958 387.733351 
L 285.41272 388.011354 
L 286.381661 388.081496 
L 288.384138 388.056267 
L 290.354317 388.057984 
L 293.325735 387.867152 
L 294.23008 387.703348 
L 297.201498 387.851306 
L 300.172916 386.765818 
L 301.141857 383.862644 
L 302.143095 384.029465 
L 303.112036 384.927471 
L 305.114513 387.044501 
L 306.018858 385.867102 
L 307.020097 385.974155 
L 307.989037 386.494319 
L 308.990276 385.778762 
L 309.959217 389.353782 
L 310.960455 388.167302 
L 311.961694 388.092165 
L 312.930634 386.481977 
L 313.931873 386.908065 
L 314.900814 390.629463 
L 315.902052 388.366071 
L 316.903291 386.482737 
L 317.839934 387.945442 
L 323.78277 388.838405 
L 324.75171 389.405746 
L 325.752949 387.186659 
L 326.72189 386.843415 
L 327.723128 386.683498 
L 328.724367 387.324341 
L 329.628712 385.969052 
L 330.62995 394.760865 
L 331.598891 388.485235 
L 332.60013 388.617171 
L 333.56907 388.226941 
L 334.570309 387.585035 
L 335.571548 388.063342 
L 336.540488 388.339227 
L 337.541727 388.978838 
L 338.510668 388.829192 
L 339.511906 389.067498 
L 340.513145 389.002223 
L 341.41749 389.339781 
L 342.418728 390.773279 
L 343.387669 386.202026 
L 344.388908 386.358751 
L 345.357848 387.428157 
L 346.359087 387.41285 
L 348.329266 386.085557 
L 349.330505 386.816439 
L 350.299445 387.878534 
L 351.300684 387.629374 
L 352.301923 387.748105 
L 353.206267 387.304017 
L 354.207506 386.214311 
L 356.177685 385.5417 
L 357.146626 389.503788 
L 358.147865 389.845779 
L 360.118044 389.423721 
L 361.119283 389.45747 
L 362.088223 389.633791 
L 363.089462 389.024166 
L 364.090701 388.800796 
L 365.027343 388.969258 
L 366.997523 388.635569 
L 368.967702 388.638515 
L 369.968941 388.786322 
L 372.940359 388.751104 
L 373.909299 388.613703 
L 375.911777 388.581415 
L 378.786301 388.875887 
L 379.787539 388.686114 
L 380.75648 388.627988 
L 382.758957 388.922099 
L 383.727898 388.839893 
L 384.729137 389.089391 
L 388.604899 388.866945 
L 389.606138 389.028461 
L 390.575078 388.648904 
L 392.545258 388.646842 
L 394.547735 389.302625 
L 395.516676 389.099104 
L 396.517914 389.034987 
L 397.486855 388.775695 
L 398.488094 389.321832 
L 399.489332 388.999277 
L 400.393677 388.521436 
L 401.394916 387.790523 
L 402.363856 387.777933 
L 403.365095 387.588076 
L 404.334036 387.650532 
L 406.336513 386.841474 
L 408.306692 386.760782 
L 409.275633 387.128171 
L 410.276872 386.064245 
L 411.27811 385.196112 
L 412.214753 385.501634 
L 413.215992 385.42068 
L 414.184932 384.931031 
L 415.186171 385.091771 
L 416.155112 384.95233 
L 417.15635 384.458904 
L 419.12653 381.745079 
L 420.127768 382.004484 
L 421.096709 378.419468 
L 422.097948 375.227002 
L 423.099186 376.233192 
L 424.003531 346.294418 
L 425.004769 332.187488 
L 425.97371 369.300575 
L 426.974949 354.951254 
L 427.943889 478.55426 
L 428.945128 506.698385 
L 429.946367 400.862594 
L 430.915307 521.762447 
L 431.916546 111.109091 
L 432.885487 336.875476 
L 433.886725 338.0684 
L 434.887964 476.294652 
L 435.792309 360.412625 
L 436.793547 376.312696 
L 437.762488 406.550724 
L 438.763727 395.807925 
L 439.732667 391.744141 
L 440.733906 392.224405 
L 441.735145 392.282324 
L 442.704085 391.811939 
L 443.705324 392.302841 
L 444.674265 391.691584 
L 445.675503 392.131973 
L 446.676742 390.326722 
L 447.581087 389.976489 
L 448.582325 390.545297 
L 449.551266 390.60573 
L 450.552505 391.20048 
L 451.521445 391.089107 
L 452.522684 392.717963 
L 453.523923 189.345876 
L 454.492863 382.171762 
L 455.494102 396.053148 
L 456.463042 394.222608 
L 457.464281 395.248298 
L 458.46552 397.075916 
L 459.402162 392.214414 
L 460.403401 391.819694 
L 461.372342 390.883265 
L 462.37358 390.716635 
L 463.342521 390.22088 
L 464.34376 389.91853 
L 465.344998 389.084044 
L 466.313939 387.883949 
L 467.315178 383.15931 
L 468.284118 384.320458 
L 469.285357 381.391287 
L 470.286596 395.037879 
L 471.19094 395.564291 
L 472.192179 399.214362 
L 473.16112 403.240637 
L 474.162358 404.537228 
L 475.131299 433.625046 
L 476.132538 405.786755 
L 477.133776 395.321617 
L 478.102717 396.170243 
L 480.072896 394.79545 
L 481.074135 392.242487 
L 482.075374 392.907256 
L 482.979718 390.350327 
L 483.980957 391.563083 
L 484.949898 391.863083 
L 485.951136 392.723422 
L 486.920077 390.469599 
L 487.921316 390.724746 
L 488.922554 390.818998 
L 490.892734 390.527508 
L 491.861674 390.68974 
L 492.862913 390.358087 
L 494.768496 390.590547 
L 495.769735 390.300742 
L 496.738675 389.74544 
L 497.739914 390.228404 
L 498.708855 389.06072 
L 499.710093 390.198562 
L 500.711332 390.472017 
L 501.680273 390.143869 
L 502.681511 390.647342 
L 503.650452 390.475432 
L 504.651691 391.787608 
L 505.652929 390.655936 
L 506.589572 390.001379 
L 507.590811 389.73856 
L 508.559751 390.117355 
L 509.56099 390.118633 
L 510.529931 390.894747 
L 511.531169 389.277974 
L 512.532408 389.908702 
L 513.501349 395.925806 
L 514.502587 393.538846 
L 515.471528 388.526782 
L 516.472767 393.707454 
L 517.474005 408.913729 
L 518.37835 405.511232 
L 519.379589 403.762121 
L 520.348529 394.37575 
L 521.349768 393.998014 
L 522.318709 395.971839 
L 523.319947 393.491838 
L 526.291365 392.618342 
L 527.260306 391.713188 
L 528.261545 390.62335 
L 529.262783 391.067885 
L 531.168366 391.42834 
L 532.137307 391.730658 
L 533.138546 391.908126 
L 534.107486 393.24982 
L 535.108725 393.331453 
L 536.109964 392.590928 
L 538.080143 392.410892 
L 539.049084 393.050328 
L 540.050322 393.324654 
L 541.051561 392.732989 
L 542.957144 392.979094 
L 543.926085 394.214542 
L 544.927324 392.930524 
L 545.896264 394.089769 
L 546.897503 396.546453 
L 547.898742 394.519427 
L 548.867682 397.849071 
L 549.868921 399.289776 
L 550.837862 399.130651 
L 551.8391 399.189056 
L 552.840339 404.056858 
L 553.776982 402.350993 
L 554.77822 405.162252 
L 555.747161 455.044094 
L 556.7484 420.446351 
L 557.71734 447.366321 
L 558.718579 395.685784 
L 559.719818 399.187761 
L 560.688758 400.677299 
L 561.689997 394.991213 
L 562.658938 393.491054 
L 563.660176 396.00507 
L 564.661415 393.685934 
L 565.565759 394.391379 
L 566.566998 398.780034 
L 567.535939 400.768094 
L 568.537177 408.166817 
L 569.506118 394.841521 
L 570.507357 393.097661 
L 571.508595 392.812685 
L 572.477536 388.942246 
L 573.478775 388.679061 
L 574.447715 388.796798 
L 576.450193 388.451747 
L 577.354537 388.960481 
L 579.324717 388.535645 
L 581.294896 388.614859 
L 584.266314 388.577461 
L 587.237732 388.700457 
L 588.238971 387.664156 
L 589.143315 387.53933 
L 590.144554 387.631556 
L 591.113495 387.417399 
L 594.084913 387.116254 
L 597.056331 386.365884 
L 598.025271 386.454069 
L 599.02651 385.761183 
L 600.027749 384.624056 
L 600.964391 385.519918 
L 601.96563 385.609143 
L 602.93457 385.834773 
L 604.90475 387.179387 
L 605.905988 387.460957 
L 608.877406 387.179374 
L 609.846347 387.428786 
L 610.847586 387.548743 
L 612.753169 387.604763 
L 613.754408 387.389593 
L 614.723348 387.342228 
L 615.724587 387.750476 
L 617.694766 387.716171 
L 619.664946 387.229688 
L 620.666184 387.706285 
L 621.635125 387.79415 
L 622.636364 387.384317 
L 622.636364 387.384317 
" style="fill:none;stroke:#e377c2;stroke-linecap:square;stroke-width:1.5;"/>
   </g>
   <g id="line2d_23">
    <path clip-path="url(#p452537a93a)" d="M 115.363636 389.068715 
L 116.364875 389.155845 
L 117.26922 389.839101 
L 118.270458 389.621202 
L 119.239399 391.049077 
L 120.240638 393.463494 
L 121.209578 392.683377 
L 122.210817 389.947466 
L 123.212056 389.539559 
L 124.180996 389.673003 
L 125.182235 390.030244 
L 126.151176 390.109228 
L 127.152414 391.234696 
L 128.153653 390.225052 
L 130.091534 389.776931 
L 131.060475 390.126972 
L 132.061714 390.080773 
L 134.031893 390.860474 
L 135.033132 396.232799 
L 136.002072 393.209879 
L 137.003311 398.510362 
L 137.972251 408.809352 
L 138.97349 392.214364 
L 139.974729 390.772941 
L 141.880312 389.366666 
L 142.849253 389.357516 
L 143.850491 388.988069 
L 144.819432 388.898207 
L 146.821909 388.478064 
L 150.762268 387.869873 
L 152.667851 388.031656 
L 153.66909 388.290333 
L 156.60821 387.97652 
L 157.609449 387.742951 
L 158.610687 387.728936 
L 159.579628 387.846472 
L 162.551046 388.656846 
L 163.552285 387.963039 
L 166.426809 388.222373 
L 168.396988 387.996098 
L 169.398227 388.484661 
L 170.399465 388.585854 
L 171.368406 388.843334 
L 172.369644 388.256322 
L 173.338585 388.240138 
L 174.339824 388.722387 
L 176.277705 388.126886 
L 177.278944 388.231492 
L 178.247884 388.770782 
L 179.249123 390.910798 
L 180.218064 388.73448 
L 181.219302 389.42469 
L 182.220541 388.812339 
L 183.189482 388.731933 
L 184.19072 388.366486 
L 186.1609 388.105029 
L 188.066483 388.166565 
L 189.067722 388.485566 
L 190.036662 388.338282 
L 193.00808 388.576263 
L 194.97826 388.485079 
L 195.979498 388.941637 
L 199.855261 388.408605 
L 205.798097 388.757149 
L 206.767037 389.233087 
L 207.768276 389.272793 
L 208.737217 390.671229 
L 209.738455 390.905219 
L 210.739694 389.779357 
L 211.644039 390.740611 
L 212.645277 392.904893 
L 213.614218 415.779322 
L 214.615457 391.183812 
L 215.584397 392.940587 
L 216.585636 392.706349 
L 217.586875 394.487641 
L 218.555815 405.956241 
L 219.557054 398.506861 
L 220.525995 381.078848 
L 221.527233 382.123268 
L 222.528472 383.364099 
L 223.465115 371.5194 
L 224.466353 380.621441 
L 225.435294 375.369032 
L 226.436533 304.336749 
L 227.405473 398.760062 
L 228.406712 395.794942 
L 229.407951 396.666907 
L 230.376891 376.23004 
L 231.37813 387.047334 
L 233.348309 387.418946 
L 234.349548 387.280777 
L 235.253893 387.585532 
L 237.224072 387.861449 
L 240.19549 387.845219 
L 246.138326 388.120744 
L 250.014088 388.146487 
L 250.983029 388.211747 
L 253.954447 388.018411 
L 256.925865 388.07366 
L 261.802866 387.907797 
L 262.771807 388.044099 
L 265.743225 388.031775 
L 266.744464 387.342022 
L 267.713404 387.231807 
L 268.714643 387.23826 
L 270.652524 387.080249 
L 271.653763 387.005455 
L 272.622704 386.641012 
L 273.623942 386.909487 
L 275.594122 386.775136 
L 276.59536 386.627246 
L 277.564301 386.844432 
L 278.56554 386.730684 
L 280.535719 386.783998 
L 281.536958 387.022292 
L 284.411481 387.233634 
L 286.381661 387.511402 
L 287.382899 387.381391 
L 289.353079 387.48069 
L 290.354317 387.311722 
L 291.323258 387.425084 
L 292.324497 387.42393 
L 293.325735 386.859078 
L 294.23008 387.186666 
L 295.231319 387.346554 
L 296.200259 387.200729 
L 297.201498 387.303071 
L 301.141857 386.898088 
L 302.143095 385.831379 
L 303.112036 386.178583 
L 304.113275 386.113349 
L 305.114513 386.938986 
L 306.018858 386.181086 
L 307.020097 385.650868 
L 307.989037 384.5978 
L 308.990276 386.477286 
L 309.959217 384.32055 
L 310.960455 386.528049 
L 311.961694 392.083622 
L 312.930634 389.738766 
L 313.931873 388.89212 
L 314.900814 391.589161 
L 315.902052 390.446732 
L 316.903291 378.210546 
L 317.839934 386.509072 
L 318.841172 386.338466 
L 321.780292 386.644854 
L 322.781531 386.517643 
L 323.78277 386.897007 
L 324.75171 386.372585 
L 325.752949 391.194362 
L 326.72189 392.623075 
L 327.723128 392.95277 
L 328.724367 391.310029 
L 329.628712 395.159197 
L 330.62995 379.516063 
L 331.598891 391.21967 
L 332.60013 392.285424 
L 333.56907 392.448582 
L 334.570309 390.787945 
L 335.571548 390.197979 
L 336.540488 390.511123 
L 337.541727 390.097934 
L 338.510668 390.24488 
L 339.511906 390.557686 
L 341.41749 392.0622 
L 342.418728 393.714561 
L 343.387669 382.943028 
L 344.388908 385.45856 
L 345.357848 386.703166 
L 346.359087 386.502534 
L 347.360326 386.013981 
L 349.330505 385.991994 
L 350.299445 387.195827 
L 351.300684 386.699045 
L 352.301923 386.044545 
L 353.206267 385.793381 
L 354.207506 383.889746 
L 355.176447 381.427572 
L 356.177685 380.389423 
L 357.146626 392.880366 
L 358.147865 390.512607 
L 359.149103 389.404457 
L 360.118044 388.984964 
L 362.088223 389.131809 
L 364.090701 388.662685 
L 365.027343 388.759969 
L 367.998761 388.660584 
L 372.940359 388.679264 
L 373.909299 388.587905 
L 375.911777 388.616022 
L 377.81736 388.506298 
L 380.75648 388.494023 
L 381.757719 388.39444 
L 382.758957 388.697573 
L 383.727898 388.678311 
L 384.729137 388.918916 
L 386.699316 388.99509 
L 387.700555 388.933605 
L 388.604899 389.023966 
L 389.606138 389.344037 
L 391.576317 389.710426 
L 392.545258 389.649643 
L 393.546496 390.520508 
L 394.547735 392.678628 
L 395.516676 391.737845 
L 396.517914 391.447014 
L 397.486855 390.986169 
L 398.488094 391.617103 
L 399.489332 392.804875 
L 400.393677 390.748341 
L 401.394916 389.807185 
L 402.363856 389.90867 
L 403.365095 389.866313 
L 404.334036 389.663107 
L 405.335274 390.028926 
L 406.336513 389.747268 
L 407.305454 389.842189 
L 408.306692 389.795659 
L 409.275633 389.623647 
L 410.276872 390.022693 
L 411.27811 390.039036 
L 412.214753 389.831617 
L 413.215992 389.821335 
L 414.184932 389.979352 
L 415.186171 389.461384 
L 418.157589 390.629275 
L 419.12653 391.750616 
L 420.127768 391.921384 
L 421.096709 393.809883 
L 422.097948 396.830142 
L 423.099186 396.472259 
L 424.003531 413.434226 
L 425.004769 422.782715 
L 425.97371 398.437835 
L 426.974949 410.424567 
L 427.943889 328.230786 
L 428.945128 318.866847 
L 429.946367 379.987929 
L 430.915307 316.593122 
L 431.916546 550.077432 
L 432.885487 416.51296 
L 433.886725 416.326272 
L 434.887964 335.599514 
L 435.792309 404.079375 
L 436.793547 396.790453 
L 437.762488 379.975638 
L 438.763727 385.047981 
L 439.732667 386.662681 
L 440.733906 386.903719 
L 441.735145 386.952839 
L 442.704085 387.420329 
L 443.705324 387.115172 
L 444.674265 387.41043 
L 445.675503 387.310838 
L 446.676742 387.679697 
L 447.581087 387.738219 
L 448.582325 387.508295 
L 449.551266 387.423871 
L 450.552505 387.073355 
L 451.521445 387.413608 
L 452.522684 386.277689 
L 453.523923 434.372592 
L 454.492863 389.362797 
L 455.494102 386.230574 
L 456.463042 386.057286 
L 457.464281 387.724546 
L 458.46552 385.572651 
L 459.402162 387.562832 
L 460.403401 387.652583 
L 461.372342 387.480619 
L 463.342521 387.435231 
L 464.34376 387.256359 
L 465.344998 386.962854 
L 466.313939 386.122905 
L 467.315178 385.702224 
L 468.284118 386.518954 
L 469.285357 384.86688 
L 470.286596 389.368277 
L 471.19094 389.09296 
L 472.192179 390.024215 
L 473.16112 390.22211 
L 474.162358 390.013799 
L 475.131299 394.230348 
L 476.132538 389.391145 
L 477.133776 388.242049 
L 478.102717 387.882653 
L 479.103956 387.830803 
L 480.072896 387.633445 
L 481.074135 387.7709 
L 482.075374 387.713016 
L 482.979718 388.169491 
L 485.951136 388.472864 
L 487.921316 388.394703 
L 488.922554 388.216508 
L 490.892734 388.246077 
L 499.710093 388.300487 
L 500.711332 388.33439 
L 501.680273 388.223719 
L 502.681511 388.313133 
L 504.651691 388.223366 
L 505.652929 388.634626 
L 507.590811 388.452026 
L 510.529931 388.557451 
L 511.531169 388.979491 
L 512.532408 389.266701 
L 513.501349 410.960078 
L 514.502587 398.287472 
L 515.471528 397.045369 
L 516.472767 400.115888 
L 517.474005 424.104416 
L 518.37835 399.993494 
L 519.379589 393.717553 
L 520.348529 391.41087 
L 521.349768 390.964387 
L 522.318709 390.927103 
L 523.319947 390.598218 
L 525.290127 390.865454 
L 526.291365 390.575807 
L 527.260306 390.123009 
L 528.261545 389.96878 
L 530.167128 389.937341 
L 531.168366 389.471024 
L 533.138546 389.543752 
L 534.107486 389.949705 
L 536.109964 390.245259 
L 539.049084 391.410958 
L 540.050322 391.144792 
L 541.051561 391.654865 
L 541.955906 391.711062 
L 542.957144 392.371947 
L 544.927324 391.108161 
L 545.896264 391.556629 
L 546.897503 392.400492 
L 547.898742 391.057625 
L 548.867682 392.438348 
L 549.868921 392.79863 
L 550.837862 392.693055 
L 551.8391 392.813418 
L 552.840339 395.003796 
L 553.776982 394.506263 
L 554.77822 394.829874 
L 555.747161 405.512444 
L 556.7484 400.192899 
L 557.71734 405.160649 
L 558.718579 392.897049 
L 559.719818 396.699394 
L 560.688758 397.584595 
L 561.689997 393.893476 
L 562.658938 393.937204 
L 563.660176 390.546451 
L 564.661415 389.675527 
L 565.565759 389.214729 
L 566.566998 388.548277 
L 567.535939 388.613389 
L 568.537177 390.274679 
L 569.506118 389.246602 
L 570.507357 390.605107 
L 571.508595 389.438666 
L 572.477536 388.575661 
L 573.478775 388.674162 
L 574.447715 388.612846 
L 575.448954 388.752902 
L 578.355776 388.902937 
L 579.324717 389.039986 
L 580.325955 389.018233 
L 581.294896 388.796081 
L 585.267553 388.661719 
L 586.236493 388.69093 
L 587.237732 388.840365 
L 589.143315 388.609726 
L 591.113495 388.535089 
L 592.114733 388.446492 
L 593.083674 388.520115 
L 594.084913 388.433081 
L 595.086151 388.546636 
L 598.025271 388.573238 
L 600.027749 389.297794 
L 600.964391 389.006283 
L 602.93457 388.775053 
L 604.90475 388.887669 
L 607.876168 388.672434 
L 612.753169 388.691149 
L 614.723348 388.665039 
L 621.635125 388.699326 
L 622.636364 388.828007 
L 622.636364 388.828007 
" style="fill:none;stroke:#7f7f7f;stroke-linecap:square;stroke-width:1.5;"/>
   </g>
   <g id="patch_3">
    <path d="M 90 630 
L 90 86.4 
" style="fill:none;stroke:#000000;stroke-linecap:square;stroke-linejoin:miter;stroke-width:0.8;"/>
   </g>
   <g id="patch_4">
    <path d="M 648 630 
L 648 86.4 
" style="fill:none;stroke:#000000;stroke-linecap:square;stroke-linejoin:miter;stroke-width:0.8;"/>
   </g>
   <g id="patch_5">
    <path d="M 90 630 
L 648 630 
" style="fill:none;stroke:#000000;stroke-linecap:square;stroke-linejoin:miter;stroke-width:0.8;"/>
   </g>
   <g id="patch_6">
    <path d="M 90 86.4 
L 648 86.4 
" style="fill:none;stroke:#000000;stroke-linecap:square;stroke-linejoin:miter;stroke-width:0.8;"/>
   </g>
  </g>
 </g>
 <defs>
  <clipPath id="p452537a93a">
   <rect height="543.6" width="558" x="90" y="86.4"/>
  </clipPath>
 </defs>
</svg>
